<?xml version="1.0" encoding="UTF-8" standalone="no"?>
<svg
   version="1.1"
   id="Roentgen_x5F_IntVerteilung"
   x="0px"
   y="0px"
   width="400"
   height="390.00101"
   viewBox="0 0 400 390.00101"
   enable-background="new 0 0 400 390"
   xml:space="preserve"
   sodipodi:docname="5090.svg"
   xmlns:inkscape="http://www.inkscape.org/namespaces/inkscape"
   xmlns:sodipodi="http://sodipodi.sourceforge.net/DTD/sodipodi-0.dtd"
   xmlns="http://www.w3.org/2000/svg"
   xmlns:svg="http://www.w3.org/2000/svg"><defs
   id="defs80" /><sodipodi:namedview
   id="namedview80"
   pagecolor="#ffffff"
   bordercolor="#000000"
   borderopacity="0.25"
   inkscape:showpageshadow="2"
   inkscape:pageopacity="0.0"
   inkscape:pagecheckerboard="0"
   inkscape:deskcolor="#d1d1d1" />&#10;<rect
   id="Hintergrund"
   fill="#ffffff"
   width="400"
   height="390.00101"
   x="0"
   y="0" />&#10;<g
   id="Kurven">&#10;	<path
   id="Bremsstrahlung"
   fill="none"
   stroke="#33cc33"
   stroke-width="2"
   stroke-dasharray="4"
   d="m 42.779,366.681 c 7.778,-55.512 24.222,-238.29 93.333,-238.29 69.112,0 105,188.167 219.054,188.167" />&#10;	<g
   id="CharakStrahlung">&#10;		<path
   id="Peak1"
   fill="none"
   stroke="#33cc33"
   d="m 163.057,366.681 c 8.304,0 2.913,-127.733 5.4,-127.733 2.487,0 0.904,127.732 9.822,127.733" />&#10;		<path
   id="Peak2"
   fill="none"
   stroke="#33cc33"
   d="m 203.057,366.681 c 8.305,0 2.913,-127.733 5.4,-127.733 2.487,0 0.904,127.732 9.822,127.733" />&#10;	</g>&#10;	<path
   id="Gesamtstrahlung"
   fill="none"
   stroke="#ec1c24"
   d="m 42.823,366.669 c 7.778,-55.512 24.222,-238.29 93.333,-238.29 8.145,0 15.828,2.613 23.231,7.224 0.78,0.486 2.682,1.644 3.436,1.644 8.458,0 3.775,-122.174 5.926,-120.022 2.545,2.545 0.064,125.144 9.27,134.348 8.062,8.062 15.375,18.476 23.083,29.554 0.885,1.272 1.511,2.118 2.304,2.118 6.781,0 3.318,-121.088 4.969,-119.438 1.896,1.896 0.794,125.613 9.5,142.252 34.336,51.818 73.65,110.486 137.336,110.486" />&#10;</g>&#10;<g
   id="Achsen">&#10;	<g
   id="yAchse_1_">&#10;		<line
   id="Linie_3_"
   fill="none"
   stroke="#000000"
   x1="23.962999"
   y1="14.276"
   x2="23.962999"
   y2="374.276" />&#10;		<polygon
   id="Spitze_3_"
   points="23.961,15.198 20.723,15.968 23.897,7.159 27.204,15.953 " />&#10;		<g
   id="g10">&#10;			<path
   d="M 17.555,210.419 H 7.534 v -1.326 h 10.021 z"
   id="path1" />&#10;			<path
   d="m 17.555,206.912 h -7.26 v -1.107 h 1.032 c -0.797,-0.533 -1.196,-1.304 -1.196,-2.311 0,-0.438 0.079,-0.84 0.236,-1.206 0.157,-0.367 0.363,-0.643 0.619,-0.824 0.256,-0.181 0.558,-0.311 0.909,-0.383 0.228,-0.045 0.626,-0.068 1.196,-0.068 h 4.464 v 1.23 h -4.416 c -0.501,0 -0.876,0.048 -1.125,0.144 -0.249,0.096 -0.447,0.266 -0.595,0.509 -0.148,0.244 -0.222,0.53 -0.222,0.858 0,0.524 0.167,0.977 0.499,1.356 0.333,0.381 0.964,0.571 1.894,0.571 h 3.965 z"
   id="path2" />&#10;			<path
   d="m 16.455,196.439 1.087,-0.178 c 0.073,0.347 0.109,0.656 0.109,0.93 0,0.446 -0.071,0.793 -0.212,1.039 -0.141,0.246 -0.327,0.419 -0.557,0.52 -0.23,0.101 -0.714,0.15 -1.453,0.15 h -4.177 v 0.902 H 10.295 V 198.9 H 8.498 L 7.76,197.676 h 2.536 v -1.237 h 0.957 v 1.237 h 4.245 c 0.351,0 0.577,-0.021 0.677,-0.064 0.1,-0.044 0.18,-0.114 0.239,-0.213 0.059,-0.098 0.089,-0.238 0.089,-0.42 -0.001,-0.136 -0.017,-0.316 -0.048,-0.54 z"
   id="path3" />&#10;			<path
   d="m 15.217,190.267 0.157,-1.271 c 0.743,0.201 1.319,0.572 1.729,1.114 0.41,0.542 0.615,1.235 0.615,2.078 0,1.062 -0.327,1.903 -0.981,2.526 -0.654,0.621 -1.571,0.933 -2.751,0.933 -1.221,0 -2.169,-0.314 -2.844,-0.943 -0.675,-0.629 -1.012,-1.444 -1.012,-2.447 0,-0.971 0.331,-1.764 0.991,-2.379 0.66,-0.615 1.59,-0.923 2.789,-0.923 0.073,0 0.182,0.002 0.328,0.007 v 5.414 c 0.797,-0.046 1.408,-0.271 1.832,-0.677 0.424,-0.406 0.636,-0.912 0.636,-1.518 0,-0.451 -0.119,-0.836 -0.355,-1.155 -0.236,-0.319 -0.614,-0.572 -1.134,-0.759 z m -1.989,4.04 v -4.054 c -0.611,0.055 -1.069,0.209 -1.374,0.465 -0.474,0.392 -0.711,0.9 -0.711,1.524 0,0.565 0.189,1.04 0.567,1.425 0.379,0.386 0.885,0.599 1.518,0.64 z"
   id="path4" />&#10;			<path
   d="m 17.555,187.45 h -7.26 v -1.107 h 1.032 c -0.797,-0.533 -1.196,-1.303 -1.196,-2.311 0,-0.438 0.079,-0.84 0.236,-1.207 0.157,-0.367 0.363,-0.642 0.619,-0.824 0.256,-0.182 0.558,-0.31 0.909,-0.383 0.228,-0.045 0.626,-0.068 1.196,-0.068 h 4.464 v 1.23 h -4.416 c -0.501,0 -0.876,0.048 -1.125,0.144 -0.249,0.096 -0.447,0.266 -0.595,0.509 -0.148,0.243 -0.222,0.53 -0.222,0.858 0,0.524 0.167,0.977 0.499,1.357 0.332,0.38 0.964,0.571 1.894,0.571 h 3.965 z"
   id="path5" />&#10;			<path
   d="m 15.388,180.156 -0.191,-1.217 c 0.488,-0.068 0.861,-0.259 1.121,-0.571 0.26,-0.312 0.39,-0.749 0.39,-1.309 0,-0.565 -0.115,-0.984 -0.345,-1.258 -0.23,-0.274 -0.5,-0.41 -0.81,-0.41 -0.278,0 -0.497,0.121 -0.656,0.362 -0.109,0.168 -0.249,0.588 -0.417,1.258 -0.228,0.902 -0.425,1.528 -0.591,1.876 -0.166,0.348 -0.396,0.613 -0.69,0.793 -0.294,0.18 -0.619,0.27 -0.974,0.27 -0.324,0 -0.623,-0.074 -0.899,-0.222 -0.276,-0.148 -0.505,-0.35 -0.687,-0.605 -0.141,-0.191 -0.261,-0.452 -0.359,-0.783 -0.098,-0.331 -0.147,-0.685 -0.147,-1.063 0,-0.57 0.082,-1.07 0.246,-1.5 0.164,-0.43 0.386,-0.749 0.667,-0.954 0.281,-0.205 0.655,-0.346 1.125,-0.424 l 0.164,1.203 c -0.374,0.055 -0.666,0.213 -0.875,0.475 -0.209,0.262 -0.314,0.632 -0.314,1.111 0,0.565 0.093,0.968 0.28,1.21 0.187,0.242 0.406,0.362 0.656,0.362 0.16,0 0.303,-0.05 0.431,-0.15 0.132,-0.1 0.242,-0.257 0.328,-0.472 0.045,-0.123 0.15,-0.485 0.314,-1.087 0.232,-0.871 0.423,-1.478 0.571,-1.822 0.148,-0.344 0.363,-0.614 0.646,-0.81 0.283,-0.196 0.633,-0.294 1.053,-0.294 0.41,0 0.796,0.12 1.159,0.359 0.363,0.239 0.643,0.584 0.841,1.036 0.198,0.452 0.297,0.961 0.297,1.531 0,0.943 -0.196,1.662 -0.588,2.157 -0.392,0.495 -0.976,0.812 -1.746,0.948 z"
   id="path6" />&#10;			<path
   d="M 8.949,172.657 H 7.534 v -1.23 h 1.415 z m 8.606,0 h -7.26 v -1.23 h 7.26 z"
   id="path7" />&#10;			<path
   d="m 16.455,166.867 1.087,-0.178 c 0.073,0.346 0.109,0.656 0.109,0.93 0,0.447 -0.071,0.793 -0.212,1.039 -0.141,0.246 -0.327,0.419 -0.557,0.52 -0.23,0.101 -0.714,0.15 -1.453,0.15 h -4.177 v 0.902 h -0.957 v -0.902 H 8.498 L 7.76,168.104 h 2.536 v -1.237 h 0.957 v 1.237 h 4.245 c 0.351,0 0.577,-0.021 0.677,-0.065 0.1,-0.044 0.18,-0.114 0.239,-0.212 0.059,-0.098 0.089,-0.238 0.089,-0.42 -0.001,-0.136 -0.017,-0.317 -0.048,-0.54 z"
   id="path8" />&#10;			<path
   d="M 8.874,162.103 H 7.472 v -1.285 h 1.401 v 1.285 z m 0,2.549 H 7.472 v -1.285 h 1.401 v 1.285 z m 7.786,-3.725 c 0.387,0.456 0.661,0.895 0.82,1.316 0.159,0.421 0.239,0.874 0.239,1.357 0,0.797 -0.195,1.411 -0.584,1.839 -0.389,0.428 -0.888,0.643 -1.494,0.643 -0.355,0 -0.68,-0.081 -0.974,-0.243 -0.294,-0.162 -0.53,-0.374 -0.708,-0.636 -0.178,-0.262 -0.312,-0.557 -0.403,-0.885 -0.064,-0.242 -0.125,-0.606 -0.185,-1.094 -0.119,-0.994 -0.26,-1.725 -0.424,-2.194 -0.168,-0.004 -0.276,-0.007 -0.321,-0.007 -0.501,0 -0.854,0.116 -1.06,0.349 -0.278,0.314 -0.417,0.782 -0.417,1.401 0,0.579 0.102,1.006 0.304,1.282 0.202,0.276 0.562,0.479 1.077,0.612 l -0.164,1.203 c -0.515,-0.109 -0.931,-0.29 -1.248,-0.54 -0.317,-0.25 -0.561,-0.613 -0.731,-1.087 -0.17,-0.474 -0.256,-1.023 -0.256,-1.647 0,-0.62 0.073,-1.124 0.219,-1.511 0.146,-0.387 0.329,-0.672 0.55,-0.854 0.221,-0.182 0.5,-0.31 0.837,-0.383 0.209,-0.041 0.588,-0.062 1.135,-0.062 h 1.641 c 1.144,0 1.867,-0.026 2.17,-0.079 0.303,-0.053 0.594,-0.156 0.872,-0.311 v 1.285 c -0.255,0.127 -0.554,0.209 -0.895,0.246 z m -2.748,0.102 c 0.182,0.447 0.337,1.117 0.465,2.01 0.073,0.506 0.155,0.864 0.246,1.073 0.091,0.209 0.225,0.372 0.4,0.485 0.175,0.113 0.37,0.171 0.584,0.171 0.328,0 0.602,-0.124 0.82,-0.373 0.218,-0.249 0.328,-0.612 0.328,-1.09 0,-0.474 -0.104,-0.896 -0.311,-1.265 -0.207,-0.369 -0.491,-0.64 -0.851,-0.813 -0.278,-0.132 -0.688,-0.198 -1.23,-0.198 z"
   id="path9" />&#10;			<path
   d="m 16.455,155.191 1.087,-0.178 c 0.073,0.346 0.109,0.656 0.109,0.93 0,0.447 -0.071,0.793 -0.212,1.039 -0.141,0.246 -0.327,0.419 -0.557,0.52 -0.23,0.101 -0.714,0.15 -1.453,0.15 h -4.177 v 0.902 h -0.957 v -0.902 H 8.498 L 7.76,156.428 h 2.536 v -1.237 h 0.957 v 1.237 h 4.245 c 0.351,0 0.577,-0.021 0.677,-0.065 0.1,-0.044 0.18,-0.114 0.239,-0.212 0.059,-0.098 0.089,-0.238 0.089,-0.42 -0.001,-0.136 -0.017,-0.316 -0.048,-0.54 z"
   id="path10" />&#10;		</g>&#10;	</g>&#10;	<g
   id="xAchse_1_">&#10;		<line
   id="Linie_2_"
   fill="none"
   stroke="#000000"
   x1="387"
   y1="366.67999"
   x2="16"
   y2="366.67999" />&#10;		<polygon
   id="Spitze_2_"
   points="386.078,366.679 385.309,363.44 394.117,366.614 385.324,369.921 " />&#10;		<g
   id="g21">&#10;			<path
   d="m 174.037,381.73 -2.659,-10.021 h 1.36 l 1.524,6.569 c 0.164,0.688 0.306,1.372 0.424,2.051 0.255,-1.071 0.405,-1.688 0.451,-1.853 l 1.907,-6.768 h 1.6 l 1.436,5.072 c 0.36,1.258 0.62,2.44 0.779,3.548 0.128,-0.634 0.294,-1.36 0.499,-2.181 l 1.572,-6.439 h 1.333 l -2.748,10.021 h -1.278 l -2.112,-7.636 c -0.178,-0.638 -0.282,-1.03 -0.314,-1.176 -0.104,0.46 -0.203,0.853 -0.294,1.176 l -2.126,7.636 h -1.354 z"
   id="path11" />&#10;			<path
   d="m 190.061,379.393 1.271,0.157 c -0.2,0.743 -0.572,1.319 -1.114,1.729 -0.542,0.41 -1.235,0.615 -2.078,0.615 -1.062,0 -1.903,-0.327 -2.526,-0.98 -0.621,-0.654 -0.933,-1.571 -0.933,-2.752 0,-1.222 0.314,-2.169 0.943,-2.844 0.629,-0.675 1.444,-1.012 2.447,-1.012 0.971,0 1.764,0.33 2.379,0.991 0.615,0.661 0.923,1.591 0.923,2.789 0,0.073 -0.002,0.183 -0.007,0.328 h -5.414 c 0.046,0.798 0.271,1.408 0.677,1.832 0.406,0.424 0.911,0.636 1.518,0.636 0.451,0 0.836,-0.118 1.155,-0.355 0.319,-0.237 0.572,-0.615 0.759,-1.134 z m -4.04,-1.99 h 4.054 c -0.055,-0.61 -0.21,-1.068 -0.465,-1.374 -0.392,-0.474 -0.9,-0.711 -1.524,-0.711 -0.565,0 -1.04,0.189 -1.425,0.567 -0.387,0.379 -0.599,0.885 -0.64,1.518 z"
   id="path12" />&#10;			<path
   d="m 192.85,381.73 v -10.021 h 1.23 v 10.021 z"
   id="path13" />&#10;			<path
   d="m 195.96,381.73 v -10.021 h 1.23 v 10.021 z"
   id="path14" />&#10;			<path
   d="m 204.067,379.393 1.271,0.157 c -0.2,0.743 -0.572,1.319 -1.114,1.729 -0.542,0.41 -1.235,0.615 -2.078,0.615 -1.062,0 -1.904,-0.327 -2.525,-0.98 -0.623,-0.654 -0.934,-1.571 -0.934,-2.752 0,-1.222 0.314,-2.169 0.943,-2.844 0.629,-0.675 1.444,-1.012 2.447,-1.012 0.971,0 1.764,0.33 2.379,0.991 0.615,0.661 0.923,1.591 0.923,2.789 0,0.073 -0.002,0.183 -0.007,0.328 h -5.414 c 0.046,0.798 0.271,1.408 0.677,1.832 0.406,0.424 0.911,0.636 1.518,0.636 0.451,0 0.836,-0.118 1.155,-0.355 0.319,-0.237 0.573,-0.615 0.759,-1.134 z m -4.04,-1.99 h 4.054 c -0.055,-0.61 -0.21,-1.068 -0.465,-1.374 -0.392,-0.474 -0.9,-0.711 -1.524,-0.711 -0.565,0 -1.04,0.189 -1.426,0.567 -0.385,0.379 -0.598,0.885 -0.639,1.518 z"
   id="path15" />&#10;			<path
   d="m 206.884,381.73 v -7.26 h 1.107 v 1.032 c 0.533,-0.798 1.304,-1.196 2.311,-1.196 0.438,0 0.84,0.078 1.206,0.236 0.367,0.156 0.642,0.363 0.824,0.618 0.182,0.255 0.31,0.559 0.383,0.909 0.046,0.228 0.068,0.627 0.068,1.196 v 4.464 h -1.23 v -4.416 c 0,-0.501 -0.048,-0.876 -0.144,-1.125 -0.096,-0.248 -0.266,-0.446 -0.509,-0.594 -0.244,-0.148 -0.53,-0.223 -0.858,-0.223 -0.524,0 -0.977,0.166 -1.356,0.499 -0.381,0.333 -0.571,0.964 -0.571,1.894 v 3.965 h -1.231 z"
   id="path16" />&#10;			<path
   d="m 214.643,381.73 v -10.021 h 1.23 v 10.021 z"
   id="path17" />&#10;			<path
   d="m 222.518,380.835 c -0.456,0.388 -0.895,0.661 -1.316,0.82 -0.421,0.159 -0.873,0.239 -1.356,0.239 -0.798,0 -1.41,-0.195 -1.839,-0.584 -0.429,-0.391 -0.643,-0.888 -0.643,-1.494 0,-0.355 0.081,-0.68 0.242,-0.975 0.162,-0.293 0.374,-0.529 0.637,-0.707 0.262,-0.178 0.557,-0.313 0.885,-0.403 0.241,-0.063 0.606,-0.125 1.094,-0.185 0.993,-0.118 1.725,-0.26 2.194,-0.424 0.005,-0.169 0.007,-0.275 0.007,-0.321 0,-0.501 -0.116,-0.854 -0.349,-1.06 -0.314,-0.278 -0.781,-0.417 -1.401,-0.417 -0.579,0 -1.006,0.102 -1.281,0.304 -0.276,0.203 -0.48,0.563 -0.612,1.077 l -1.203,-0.164 c 0.109,-0.515 0.289,-0.931 0.54,-1.247 0.251,-0.317 0.613,-0.561 1.087,-0.732 0.474,-0.17 1.023,-0.256 1.647,-0.256 0.62,0 1.123,0.073 1.511,0.219 0.388,0.146 0.672,0.329 0.854,0.551 0.183,0.221 0.31,0.5 0.383,0.837 0.041,0.21 0.062,0.588 0.062,1.135 v 1.641 c 0,1.144 0.026,1.867 0.079,2.171 0.052,0.303 0.155,0.593 0.311,0.871 h -1.285 c -0.13,-0.255 -0.212,-0.554 -0.248,-0.896 z m -0.103,-2.748 c -0.446,0.183 -1.116,0.337 -2.01,0.465 -0.506,0.073 -0.863,0.155 -1.073,0.246 -0.21,0.091 -0.371,0.225 -0.485,0.399 -0.114,0.176 -0.171,0.371 -0.171,0.585 0,0.328 0.124,0.602 0.373,0.82 0.248,0.219 0.611,0.328 1.09,0.328 0.474,0 0.896,-0.104 1.265,-0.312 0.369,-0.207 0.641,-0.49 0.813,-0.851 0.132,-0.278 0.198,-0.688 0.198,-1.23 z m -3.623,-5.038 v -1.401 h 1.285 v 1.401 z m 2.55,0 v -1.401 h 1.285 v 1.401 z"
   id="path18" />&#10;			<path
   d="m 225.566,381.73 v -7.26 h 1.107 v 1.032 c 0.533,-0.798 1.304,-1.196 2.311,-1.196 0.438,0 0.84,0.078 1.207,0.236 0.366,0.156 0.641,0.363 0.823,0.618 0.182,0.255 0.31,0.559 0.383,0.909 0.046,0.228 0.068,0.627 0.068,1.196 v 4.464 h -1.23 v -4.416 c 0,-0.501 -0.048,-0.876 -0.144,-1.125 -0.096,-0.248 -0.266,-0.446 -0.51,-0.594 -0.243,-0.148 -0.529,-0.223 -0.857,-0.223 -0.524,0 -0.977,0.166 -1.357,0.499 -0.38,0.333 -0.57,0.964 -0.57,1.894 v 3.965 h -1.231 z"
   id="path19" />&#10;			<path
   d="m 233.127,382.332 1.196,0.178 c 0.05,0.369 0.189,0.638 0.417,0.807 0.306,0.228 0.723,0.342 1.251,0.342 0.569,0 1.01,-0.114 1.319,-0.342 0.309,-0.228 0.52,-0.547 0.629,-0.957 0.063,-0.251 0.094,-0.777 0.089,-1.579 -0.538,0.634 -1.208,0.95 -2.01,0.95 -0.998,0 -1.771,-0.36 -2.317,-1.08 -0.546,-0.72 -0.82,-1.584 -0.82,-2.591 0,-0.692 0.125,-1.332 0.376,-1.917 0.251,-0.586 0.614,-1.038 1.091,-1.357 0.476,-0.319 1.035,-0.479 1.678,-0.479 0.856,0 1.563,0.347 2.119,1.039 v -0.875 h 1.135 v 6.275 c 0,1.13 -0.115,1.932 -0.346,2.402 -0.229,0.473 -0.594,0.845 -1.094,1.118 -0.498,0.273 -1.112,0.41 -1.842,0.41 -0.866,0 -1.565,-0.194 -2.099,-0.585 -0.533,-0.388 -0.791,-0.975 -0.772,-1.759 z m 1.019,-4.361 c 0,0.952 0.189,1.647 0.567,2.085 0.378,0.438 0.853,0.656 1.422,0.656 0.565,0 1.039,-0.218 1.422,-0.653 0.383,-0.435 0.574,-1.117 0.574,-2.047 0,-0.889 -0.197,-1.559 -0.592,-2.01 -0.394,-0.451 -0.869,-0.677 -1.425,-0.677 -0.547,0 -1.012,0.222 -1.395,0.667 -0.382,0.444 -0.573,1.104 -0.573,1.979 z"
   id="path20" />&#10;			<path
   d="m 246.108,379.393 1.271,0.157 c -0.2,0.743 -0.572,1.319 -1.114,1.729 -0.542,0.41 -1.235,0.615 -2.078,0.615 -1.062,0 -1.904,-0.327 -2.525,-0.98 -0.623,-0.654 -0.934,-1.571 -0.934,-2.752 0,-1.222 0.314,-2.169 0.943,-2.844 0.629,-0.675 1.444,-1.012 2.447,-1.012 0.971,0 1.764,0.33 2.379,0.991 0.615,0.661 0.923,1.591 0.923,2.789 0,0.073 -0.002,0.183 -0.007,0.328 H 242 c 0.046,0.798 0.271,1.408 0.677,1.832 0.406,0.424 0.911,0.636 1.518,0.636 0.451,0 0.836,-0.118 1.155,-0.355 0.319,-0.237 0.572,-0.615 0.758,-1.134 z m -4.04,-1.99 h 4.054 c -0.055,-0.61 -0.21,-1.068 -0.465,-1.374 -0.392,-0.474 -0.9,-0.711 -1.524,-0.711 -0.565,0 -1.04,0.189 -1.426,0.567 -0.385,0.379 -0.598,0.885 -0.639,1.518 z"
   id="path21" />&#10;		</g>&#10;	</g>&#10;	<g
   id="g24">&#10;		<g
   id="g22">&#10;			<path
   d="m 37.117,373.834 -2.32,6.203 h -1.484 l 3.078,-8.141 -1.234,-3.313 h 1.484 l 4.281,11.453 h -1.484 z"
   id="path22" />&#10;		</g>&#10;		<g
   id="g23">&#10;			<path
   d="m 47.895,380.106 v -1.176 l 4.245,-0.007 v 3.719 c -0.652,0.52 -1.324,0.91 -2.017,1.173 -0.693,0.262 -1.404,0.393 -2.133,0.393 -0.984,0 -1.879,-0.211 -2.683,-0.633 -0.804,-0.421 -1.412,-1.03 -1.822,-1.828 -0.41,-0.798 -0.615,-1.688 -0.615,-2.673 0,-0.976 0.204,-1.886 0.612,-2.731 0.408,-0.845 0.995,-1.473 1.76,-1.883 0.765,-0.41 1.647,-0.615 2.646,-0.615 0.725,0 1.38,0.117 1.965,0.352 0.585,0.235 1.045,0.563 1.377,0.981 0.332,0.418 0.585,0.966 0.759,1.641 l -1.196,0.328 c -0.15,-0.511 -0.337,-0.911 -0.561,-1.203 -0.224,-0.292 -0.542,-0.525 -0.957,-0.7 -0.415,-0.176 -0.875,-0.264 -1.381,-0.264 -0.606,0 -1.13,0.092 -1.572,0.277 -0.442,0.184 -0.799,0.427 -1.07,0.728 -0.271,0.301 -0.482,0.631 -0.632,0.991 -0.255,0.62 -0.383,1.292 -0.383,2.017 0,0.894 0.154,1.641 0.461,2.242 0.307,0.601 0.755,1.048 1.343,1.34 0.588,0.292 1.212,0.438 1.873,0.438 0.574,0 1.135,-0.11 1.682,-0.331 0.547,-0.222 0.961,-0.457 1.244,-0.708 v -1.866 h -2.945 z"
   id="path23" />&#10;		</g>&#10;	</g>&#10;</g>&#10;<g
   id="Legende">&#10;	<rect
   id="Rahmen"
   x="222.383"
   y="8.4619999"
   fill="#ffffff"
   stroke="#000000"
   width="171.117"
   height="95.226997" />&#10;	<g
   id="g37">&#10;		<path
   d="M 277.858,29.492 V 19.471 h 3.76 c 0.766,0 1.38,0.102 1.842,0.304 0.463,0.203 0.825,0.515 1.088,0.937 0.262,0.421 0.393,0.862 0.393,1.323 0,0.428 -0.116,0.832 -0.349,1.21 -0.233,0.378 -0.583,0.684 -1.053,0.916 0.606,0.178 1.072,0.481 1.397,0.909 0.326,0.428 0.489,0.934 0.489,1.518 0,0.469 -0.099,0.906 -0.298,1.309 -0.197,0.403 -0.442,0.714 -0.734,0.933 -0.292,0.219 -0.657,0.384 -1.098,0.496 -0.439,0.112 -0.979,0.167 -1.616,0.167 h -3.821 z m 1.327,-5.81 h 2.167 c 0.588,0 1.01,-0.039 1.265,-0.116 0.337,-0.1 0.592,-0.267 0.762,-0.499 0.172,-0.232 0.257,-0.524 0.257,-0.875 0,-0.333 -0.08,-0.625 -0.239,-0.878 -0.159,-0.253 -0.388,-0.426 -0.684,-0.52 -0.296,-0.094 -0.805,-0.14 -1.524,-0.14 h -2.003 v 3.028 z m 0,4.628 h 2.495 c 0.429,0 0.729,-0.016 0.902,-0.048 0.306,-0.055 0.561,-0.146 0.766,-0.273 0.205,-0.127 0.374,-0.313 0.506,-0.557 0.132,-0.244 0.198,-0.525 0.198,-0.844 0,-0.374 -0.096,-0.698 -0.287,-0.974 -0.191,-0.276 -0.457,-0.469 -0.797,-0.581 -0.339,-0.112 -0.828,-0.167 -1.466,-0.167 h -2.317 z"
   id="path24" />&#10;		<path
   d="m 287.08,29.492 v -7.26 h 1.107 v 1.101 c 0.282,-0.515 0.544,-0.854 0.782,-1.019 0.24,-0.164 0.503,-0.246 0.79,-0.246 0.415,0 0.836,0.132 1.265,0.396 l -0.424,1.142 c -0.301,-0.178 -0.602,-0.267 -0.902,-0.267 -0.269,0 -0.511,0.081 -0.725,0.243 -0.214,0.162 -0.367,0.386 -0.458,0.673 -0.137,0.438 -0.205,0.916 -0.205,1.436 v 3.801 z"
   id="path25" />&#10;		<path
   d="m 296.726,27.154 1.271,0.157 c -0.2,0.743 -0.572,1.319 -1.114,1.729 -0.542,0.41 -1.235,0.615 -2.078,0.615 -1.062,0 -1.903,-0.327 -2.526,-0.981 -0.621,-0.654 -0.933,-1.571 -0.933,-2.751 0,-1.221 0.314,-2.169 0.943,-2.844 0.629,-0.675 1.444,-1.012 2.447,-1.012 0.971,0 1.764,0.331 2.379,0.991 0.615,0.66 0.923,1.59 0.923,2.789 0,0.073 -0.002,0.182 -0.007,0.328 h -5.414 c 0.046,0.797 0.271,1.408 0.677,1.832 0.406,0.424 0.911,0.636 1.518,0.636 0.451,0 0.836,-0.119 1.155,-0.355 0.319,-0.236 0.572,-0.614 0.759,-1.134 z m -4.04,-1.989 h 4.054 c -0.055,-0.611 -0.21,-1.069 -0.465,-1.374 -0.392,-0.474 -0.9,-0.711 -1.524,-0.711 -0.565,0 -1.04,0.189 -1.425,0.567 -0.387,0.379 -0.599,0.885 -0.64,1.518 z"
   id="path26" />&#10;		<path
   d="m 299.542,29.492 v -7.26 h 1.101 v 1.019 c 0.228,-0.355 0.531,-0.642 0.909,-0.858 0.378,-0.216 0.809,-0.325 1.292,-0.325 0.538,0 0.979,0.112 1.323,0.335 0.344,0.223 0.586,0.536 0.728,0.937 0.574,-0.848 1.321,-1.271 2.242,-1.271 0.72,0 1.273,0.199 1.661,0.598 0.388,0.399 0.581,1.013 0.581,1.842 v 4.983 h -1.224 v -4.573 c 0,-0.492 -0.04,-0.847 -0.119,-1.063 -0.08,-0.216 -0.225,-0.391 -0.435,-0.523 -0.21,-0.132 -0.456,-0.198 -0.738,-0.198 -0.511,0 -0.935,0.17 -1.271,0.509 -0.336,0.339 -0.506,0.883 -0.506,1.63 v 4.218 h -1.23 v -4.717 c 0,-0.547 -0.101,-0.957 -0.301,-1.23 -0.2,-0.273 -0.528,-0.41 -0.984,-0.41 -0.347,0 -0.667,0.091 -0.96,0.273 -0.295,0.182 -0.508,0.449 -0.64,0.8 -0.132,0.351 -0.198,0.857 -0.198,1.518 v 3.767 h -1.231 z"
   id="path27" />&#10;		<path
   d="m 310.712,27.325 1.217,-0.191 c 0.068,0.488 0.259,0.861 0.57,1.121 0.313,0.26 0.749,0.39 1.31,0.39 0.565,0 0.984,-0.115 1.258,-0.345 0.274,-0.23 0.41,-0.5 0.41,-0.81 0,-0.278 -0.121,-0.497 -0.362,-0.656 -0.169,-0.109 -0.588,-0.249 -1.258,-0.417 -0.902,-0.228 -1.527,-0.425 -1.877,-0.591 -0.348,-0.167 -0.612,-0.396 -0.793,-0.69 -0.18,-0.294 -0.27,-0.619 -0.27,-0.974 0,-0.324 0.074,-0.623 0.223,-0.899 0.147,-0.276 0.35,-0.505 0.604,-0.687 0.191,-0.141 0.452,-0.261 0.782,-0.359 0.331,-0.098 0.686,-0.147 1.063,-0.147 0.569,0 1.069,0.082 1.501,0.246 0.43,0.164 0.748,0.386 0.953,0.667 0.205,0.281 0.347,0.655 0.424,1.125 l -1.203,0.164 c -0.055,-0.374 -0.213,-0.666 -0.475,-0.875 -0.263,-0.209 -0.633,-0.314 -1.111,-0.314 -0.565,0 -0.969,0.093 -1.21,0.28 -0.241,0.187 -0.362,0.406 -0.362,0.656 0,0.16 0.05,0.303 0.15,0.431 0.101,0.132 0.258,0.242 0.472,0.328 0.123,0.045 0.485,0.15 1.087,0.314 0.87,0.232 1.478,0.423 1.822,0.571 0.344,0.148 0.613,0.363 0.81,0.646 0.197,0.283 0.294,0.633 0.294,1.053 0,0.41 -0.119,0.796 -0.359,1.159 -0.238,0.362 -0.584,0.643 -1.035,0.841 -0.451,0.198 -0.962,0.297 -1.531,0.297 -0.943,0 -1.662,-0.196 -2.156,-0.588 -0.496,-0.395 -0.811,-0.976 -0.948,-1.746 z"
   id="path28" />&#10;		<path
   d="m 317.712,27.325 1.217,-0.191 c 0.068,0.488 0.259,0.861 0.57,1.121 0.313,0.26 0.749,0.39 1.31,0.39 0.565,0 0.984,-0.115 1.258,-0.345 0.274,-0.23 0.41,-0.5 0.41,-0.81 0,-0.278 -0.121,-0.497 -0.362,-0.656 -0.169,-0.109 -0.588,-0.249 -1.258,-0.417 -0.902,-0.228 -1.527,-0.425 -1.877,-0.591 -0.348,-0.167 -0.612,-0.396 -0.793,-0.69 -0.18,-0.294 -0.27,-0.619 -0.27,-0.974 0,-0.324 0.074,-0.623 0.223,-0.899 0.147,-0.276 0.35,-0.505 0.604,-0.687 0.191,-0.141 0.452,-0.261 0.782,-0.359 0.331,-0.098 0.686,-0.147 1.063,-0.147 0.569,0 1.069,0.082 1.501,0.246 0.43,0.164 0.748,0.386 0.953,0.667 0.205,0.281 0.347,0.655 0.424,1.125 l -1.203,0.164 c -0.055,-0.374 -0.213,-0.666 -0.475,-0.875 -0.263,-0.209 -0.633,-0.314 -1.111,-0.314 -0.565,0 -0.969,0.093 -1.21,0.28 -0.241,0.187 -0.362,0.406 -0.362,0.656 0,0.16 0.05,0.303 0.15,0.431 0.101,0.132 0.258,0.242 0.472,0.328 0.123,0.045 0.485,0.15 1.087,0.314 0.87,0.232 1.478,0.423 1.822,0.571 0.344,0.148 0.613,0.363 0.81,0.646 0.197,0.283 0.294,0.633 0.294,1.053 0,0.41 -0.119,0.796 -0.359,1.159 -0.238,0.362 -0.584,0.643 -1.035,0.841 -0.451,0.198 -0.962,0.297 -1.531,0.297 -0.943,0 -1.662,-0.196 -2.156,-0.588 -0.496,-0.395 -0.811,-0.976 -0.948,-1.746 z"
   id="path29" />&#10;		<path
   d="m 327.891,28.392 0.178,1.087 c -0.347,0.073 -0.656,0.109 -0.93,0.109 -0.446,0 -0.793,-0.071 -1.039,-0.212 -0.246,-0.141 -0.419,-0.327 -0.52,-0.557 -0.101,-0.23 -0.15,-0.714 -0.15,-1.453 v -4.177 h -0.902 v -0.957 h 0.902 v -1.798 l 1.224,-0.738 v 2.536 h 1.237 v 0.957 h -1.237 v 4.245 c 0,0.351 0.021,0.577 0.064,0.677 0.044,0.1 0.114,0.18 0.213,0.239 0.098,0.059 0.237,0.089 0.42,0.089 0.136,0 0.316,-0.016 0.54,-0.047 z"
   id="path30" />&#10;		<path
   d="m 329.08,29.492 v -7.26 h 1.107 v 1.101 c 0.282,-0.515 0.544,-0.854 0.782,-1.019 0.24,-0.164 0.503,-0.246 0.79,-0.246 0.415,0 0.836,0.132 1.265,0.396 l -0.424,1.142 c -0.301,-0.178 -0.602,-0.267 -0.902,-0.267 -0.269,0 -0.511,0.081 -0.725,0.243 -0.214,0.162 -0.367,0.386 -0.458,0.673 -0.137,0.438 -0.205,0.916 -0.205,1.436 v 3.801 z"
   id="path31" />&#10;		<path
   d="m 338.493,28.597 c -0.456,0.387 -0.895,0.661 -1.316,0.82 -0.421,0.16 -0.873,0.239 -1.356,0.239 -0.798,0 -1.41,-0.195 -1.839,-0.584 -0.429,-0.389 -0.643,-0.888 -0.643,-1.494 0,-0.355 0.081,-0.68 0.242,-0.974 0.162,-0.294 0.374,-0.53 0.637,-0.708 0.262,-0.178 0.557,-0.312 0.885,-0.403 0.241,-0.064 0.606,-0.125 1.094,-0.185 0.993,-0.119 1.725,-0.26 2.194,-0.424 0.005,-0.168 0.007,-0.276 0.007,-0.321 0,-0.501 -0.116,-0.854 -0.349,-1.06 -0.314,-0.278 -0.781,-0.417 -1.401,-0.417 -0.579,0 -1.006,0.102 -1.281,0.304 -0.276,0.203 -0.48,0.562 -0.612,1.077 l -1.203,-0.164 c 0.109,-0.515 0.289,-0.931 0.54,-1.248 0.251,-0.317 0.613,-0.561 1.087,-0.731 0.474,-0.17 1.023,-0.256 1.647,-0.256 0.62,0 1.123,0.073 1.511,0.219 0.388,0.146 0.672,0.329 0.854,0.55 0.182,0.221 0.31,0.5 0.383,0.837 0.041,0.209 0.062,0.588 0.062,1.135 v 1.641 c 0,1.144 0.026,1.867 0.079,2.17 0.052,0.303 0.155,0.594 0.311,0.872 h -1.285 c -0.13,-0.255 -0.212,-0.554 -0.248,-0.895 z m -0.102,-2.748 c -0.446,0.182 -1.116,0.337 -2.01,0.465 -0.506,0.073 -0.863,0.155 -1.073,0.246 -0.21,0.091 -0.371,0.225 -0.485,0.4 -0.114,0.175 -0.171,0.37 -0.171,0.584 0,0.328 0.124,0.602 0.373,0.82 0.248,0.219 0.611,0.328 1.09,0.328 0.474,0 0.896,-0.104 1.265,-0.311 0.369,-0.207 0.641,-0.491 0.813,-0.851 0.132,-0.278 0.198,-0.688 0.198,-1.23 z"
   id="path32" />&#10;		<path
   d="M 341.542,29.492 V 19.471 h 1.23 v 3.596 c 0.574,-0.666 1.299,-0.998 2.174,-0.998 0.538,0 1.005,0.106 1.401,0.318 0.396,0.212 0.681,0.505 0.851,0.878 0.172,0.374 0.257,0.916 0.257,1.627 v 4.601 h -1.23 v -4.601 c 0,-0.615 -0.134,-1.063 -0.399,-1.343 -0.268,-0.28 -0.645,-0.42 -1.132,-0.42 -0.364,0 -0.708,0.095 -1.028,0.284 -0.322,0.189 -0.551,0.445 -0.688,0.769 -0.137,0.324 -0.205,0.77 -0.205,1.34 v 3.972 h -1.231 z"
   id="path33" />&#10;		<path
   d="M 349.301,29.492 V 19.471 h 1.23 v 10.021 z"
   id="path34" />&#10;		<path
   d="m 357.196,29.492 v -1.066 c -0.565,0.82 -1.333,1.23 -2.304,1.23 -0.429,0 -0.828,-0.082 -1.2,-0.246 -0.371,-0.164 -0.646,-0.37 -0.826,-0.619 -0.181,-0.249 -0.307,-0.553 -0.38,-0.913 -0.05,-0.242 -0.075,-0.625 -0.075,-1.148 v -4.498 h 1.23 v 4.026 c 0,0.643 0.025,1.076 0.075,1.299 0.077,0.324 0.241,0.578 0.492,0.762 0.251,0.184 0.561,0.277 0.93,0.277 0.369,0 0.716,-0.095 1.039,-0.284 0.323,-0.189 0.553,-0.447 0.687,-0.772 0.135,-0.326 0.202,-0.799 0.202,-1.418 v -3.89 h 1.23 v 7.26 z"
   id="path35" />&#10;		<path
   d="m 360.225,29.492 v -7.26 h 1.107 v 1.032 c 0.533,-0.797 1.304,-1.196 2.311,-1.196 0.438,0 0.84,0.079 1.206,0.236 0.367,0.157 0.642,0.363 0.824,0.619 0.182,0.256 0.31,0.558 0.383,0.909 0.046,0.228 0.068,0.626 0.068,1.196 v 4.464 h -1.23 v -4.416 c 0,-0.501 -0.048,-0.876 -0.144,-1.125 -0.096,-0.249 -0.266,-0.447 -0.509,-0.595 -0.244,-0.148 -0.53,-0.222 -0.858,-0.222 -0.524,0 -0.977,0.167 -1.356,0.499 -0.381,0.333 -0.571,0.964 -0.571,1.894 v 3.965 z"
   id="path36" />&#10;		<path
   d="m 367.785,30.094 1.196,0.178 c 0.05,0.369 0.189,0.638 0.417,0.807 0.306,0.228 0.723,0.342 1.251,0.342 0.569,0 1.01,-0.114 1.319,-0.342 0.309,-0.228 0.52,-0.547 0.629,-0.957 0.063,-0.25 0.094,-0.777 0.089,-1.579 -0.538,0.633 -1.208,0.95 -2.01,0.95 -0.998,0 -1.771,-0.36 -2.317,-1.08 -0.546,-0.72 -0.82,-1.583 -0.82,-2.591 0,-0.693 0.125,-1.332 0.376,-1.917 0.251,-0.585 0.614,-1.038 1.09,-1.357 0.477,-0.319 1.036,-0.479 1.679,-0.479 0.856,0 1.563,0.346 2.119,1.039 v -0.875 h 1.135 v 6.275 c 0,1.13 -0.115,1.931 -0.345,2.403 -0.23,0.472 -0.596,0.844 -1.094,1.118 -0.5,0.273 -1.113,0.41 -1.843,0.41 -0.866,0 -1.565,-0.195 -2.099,-0.584 -0.534,-0.389 -0.79,-0.978 -0.772,-1.761 z m 1.019,-4.362 c 0,0.953 0.189,1.647 0.567,2.085 0.378,0.438 0.853,0.656 1.422,0.656 0.565,0 1.039,-0.218 1.422,-0.653 0.383,-0.435 0.574,-1.118 0.574,-2.047 0,-0.889 -0.197,-1.559 -0.591,-2.01 -0.395,-0.451 -0.87,-0.677 -1.426,-0.677 -0.547,0 -1.012,0.222 -1.395,0.667 -0.383,0.445 -0.573,1.104 -0.573,1.979 z"
   id="path37" />&#10;	</g>&#10;	<g
   id="g63">&#10;		<path
   d="m 282.493,49.35 1.21,0.157 c -0.132,0.834 -0.471,1.487 -1.015,1.958 -0.545,0.472 -1.214,0.708 -2.007,0.708 -0.993,0 -1.792,-0.325 -2.396,-0.974 -0.604,-0.649 -0.906,-1.58 -0.906,-2.792 0,-0.784 0.13,-1.47 0.39,-2.058 0.26,-0.588 0.655,-1.029 1.187,-1.323 0.53,-0.294 1.108,-0.441 1.732,-0.441 0.788,0 1.434,0.199 1.935,0.598 0.501,0.399 0.822,0.965 0.964,1.699 l -1.196,0.185 c -0.114,-0.488 -0.315,-0.854 -0.604,-1.101 -0.29,-0.246 -0.64,-0.369 -1.05,-0.369 -0.62,0 -1.123,0.222 -1.511,0.667 -0.388,0.445 -0.581,1.147 -0.581,2.109 0,0.975 0.187,1.684 0.561,2.126 0.374,0.442 0.861,0.663 1.463,0.663 0.483,0 0.887,-0.148 1.21,-0.444 0.323,-0.296 0.527,-0.753 0.614,-1.368 z"
   id="path38" />&#10;		<path
   d="M 284.756,52.009 V 41.987 h 1.23 v 3.596 c 0.574,-0.666 1.299,-0.998 2.174,-0.998 0.538,0 1.005,0.106 1.401,0.318 0.396,0.212 0.68,0.505 0.852,0.878 0.17,0.374 0.256,0.916 0.256,1.627 v 4.601 h -1.23 v -4.601 c 0,-0.615 -0.133,-1.063 -0.4,-1.343 -0.266,-0.28 -0.644,-0.42 -1.131,-0.42 -0.364,0 -0.707,0.095 -1.029,0.284 -0.32,0.189 -0.55,0.445 -0.687,0.769 -0.137,0.324 -0.205,0.77 -0.205,1.34 v 3.972 h -1.231 z"
   id="path39" />&#10;		<path
   d="m 297.279,51.113 c -0.456,0.387 -0.895,0.661 -1.315,0.82 -0.422,0.16 -0.874,0.239 -1.357,0.239 -0.798,0 -1.41,-0.195 -1.839,-0.584 -0.429,-0.389 -0.643,-0.888 -0.643,-1.494 0,-0.355 0.081,-0.68 0.243,-0.974 0.161,-0.294 0.373,-0.53 0.635,-0.708 0.263,-0.178 0.558,-0.312 0.886,-0.403 0.241,-0.064 0.606,-0.125 1.094,-0.185 0.993,-0.119 1.725,-0.26 2.194,-0.424 0.005,-0.168 0.007,-0.276 0.007,-0.321 0,-0.501 -0.116,-0.854 -0.349,-1.06 -0.314,-0.278 -0.781,-0.417 -1.401,-0.417 -0.579,0 -1.006,0.102 -1.282,0.304 -0.275,0.203 -0.479,0.562 -0.611,1.077 l -1.203,-0.164 c 0.109,-0.515 0.289,-0.931 0.54,-1.248 0.251,-0.317 0.613,-0.561 1.087,-0.731 0.474,-0.17 1.023,-0.256 1.647,-0.256 0.62,0 1.123,0.073 1.511,0.219 0.388,0.146 0.672,0.329 0.854,0.55 0.182,0.221 0.31,0.5 0.383,0.837 0.041,0.209 0.062,0.588 0.062,1.135 v 1.641 c 0,1.144 0.026,1.867 0.078,2.17 0.053,0.303 0.156,0.594 0.312,0.872 h -1.285 c -0.13,-0.255 -0.212,-0.553 -0.248,-0.895 z m -0.102,-2.748 c -0.446,0.182 -1.116,0.337 -2.01,0.465 -0.506,0.073 -0.863,0.155 -1.073,0.246 -0.21,0.091 -0.371,0.225 -0.485,0.4 -0.114,0.175 -0.171,0.37 -0.171,0.584 0,0.328 0.124,0.602 0.372,0.82 0.249,0.219 0.612,0.328 1.091,0.328 0.474,0 0.896,-0.104 1.265,-0.311 0.369,-0.207 0.641,-0.491 0.813,-0.851 0.132,-0.278 0.198,-0.688 0.198,-1.23 z"
   id="path40" />&#10;		<path
   d="m 300.314,52.009 v -7.26 h 1.107 v 1.101 c 0.282,-0.515 0.544,-0.854 0.782,-1.019 0.24,-0.164 0.503,-0.246 0.79,-0.246 0.415,0 0.836,0.132 1.265,0.396 l -0.424,1.142 c -0.301,-0.178 -0.602,-0.267 -0.902,-0.267 -0.269,0 -0.511,0.081 -0.725,0.243 -0.214,0.162 -0.367,0.386 -0.458,0.673 -0.137,0.438 -0.205,0.916 -0.205,1.436 v 3.801 z"
   id="path41" />&#10;		<path
   d="m 309.728,51.113 c -0.456,0.387 -0.895,0.661 -1.316,0.82 -0.421,0.16 -0.873,0.239 -1.356,0.239 -0.798,0 -1.41,-0.195 -1.839,-0.584 -0.429,-0.389 -0.643,-0.888 -0.643,-1.494 0,-0.355 0.081,-0.68 0.242,-0.974 0.162,-0.294 0.374,-0.53 0.637,-0.708 0.262,-0.178 0.557,-0.312 0.885,-0.403 0.241,-0.064 0.606,-0.125 1.094,-0.185 0.993,-0.119 1.725,-0.26 2.194,-0.424 0.005,-0.168 0.007,-0.276 0.007,-0.321 0,-0.501 -0.116,-0.854 -0.349,-1.06 -0.314,-0.278 -0.781,-0.417 -1.401,-0.417 -0.579,0 -1.006,0.102 -1.281,0.304 -0.276,0.203 -0.48,0.562 -0.612,1.077 l -1.203,-0.164 c 0.109,-0.515 0.289,-0.931 0.54,-1.248 0.251,-0.317 0.613,-0.561 1.087,-0.731 0.474,-0.17 1.023,-0.256 1.647,-0.256 0.62,0 1.123,0.073 1.511,0.219 0.388,0.146 0.672,0.329 0.854,0.55 0.182,0.221 0.31,0.5 0.383,0.837 0.041,0.209 0.062,0.588 0.062,1.135 v 1.641 c 0,1.144 0.026,1.867 0.079,2.17 0.052,0.303 0.155,0.594 0.311,0.872 h -1.285 c -0.13,-0.255 -0.212,-0.553 -0.248,-0.895 z m -0.103,-2.748 c -0.446,0.182 -1.116,0.337 -2.01,0.465 -0.506,0.073 -0.863,0.155 -1.073,0.246 -0.21,0.091 -0.371,0.225 -0.485,0.4 -0.114,0.175 -0.171,0.37 -0.171,0.584 0,0.328 0.124,0.602 0.373,0.82 0.248,0.219 0.611,0.328 1.09,0.328 0.474,0 0.896,-0.104 1.265,-0.311 0.369,-0.207 0.641,-0.491 0.813,-0.851 0.132,-0.278 0.198,-0.688 0.198,-1.23 z"
   id="path42" />&#10;		<path
   d="M 312.783,52.009 V 41.987 h 1.23 v 5.715 l 2.912,-2.953 h 1.593 l -2.775,2.693 3.056,4.566 h -1.518 l -2.399,-3.712 -0.868,0.834 v 2.878 h -1.231 z"
   id="path43" />&#10;		<path
   d="m 322.463,50.908 0.178,1.087 c -0.347,0.073 -0.656,0.109 -0.93,0.109 -0.446,0 -0.793,-0.071 -1.039,-0.212 -0.246,-0.141 -0.419,-0.327 -0.52,-0.557 -0.101,-0.23 -0.15,-0.714 -0.15,-1.453 V 45.705 H 319.1 v -0.957 h 0.902 V 42.95 l 1.224,-0.738 v 2.536 h 1.237 v 0.957 h -1.237 v 4.245 c 0,0.351 0.021,0.577 0.064,0.677 0.044,0.1 0.114,0.18 0.213,0.239 0.098,0.059 0.237,0.089 0.42,0.089 0.137,0.001 0.316,-0.015 0.54,-0.047 z"
   id="path44" />&#10;		<path
   d="m 328.636,49.671 1.271,0.157 c -0.2,0.743 -0.572,1.319 -1.114,1.729 -0.542,0.41 -1.235,0.615 -2.078,0.615 -1.062,0 -1.903,-0.327 -2.526,-0.981 -0.621,-0.654 -0.933,-1.571 -0.933,-2.751 0,-1.221 0.314,-2.169 0.943,-2.844 0.629,-0.675 1.444,-1.012 2.447,-1.012 0.971,0 1.764,0.331 2.379,0.991 0.615,0.66 0.923,1.59 0.923,2.789 0,0.073 -0.002,0.182 -0.007,0.328 h -5.414 c 0.046,0.797 0.271,1.408 0.677,1.832 0.406,0.424 0.911,0.636 1.518,0.636 0.451,0 0.836,-0.119 1.155,-0.355 0.319,-0.236 0.572,-0.615 0.759,-1.134 z m -4.04,-1.989 h 4.054 c -0.055,-0.611 -0.21,-1.069 -0.465,-1.374 -0.392,-0.474 -0.9,-0.711 -1.524,-0.711 -0.565,0 -1.04,0.189 -1.425,0.567 -0.386,0.378 -0.599,0.884 -0.64,1.518 z"
   id="path45" />&#10;		<path
   d="m 331.438,52.009 v -7.26 h 1.107 v 1.101 c 0.282,-0.515 0.543,-0.854 0.783,-1.019 0.238,-0.164 0.502,-0.246 0.789,-0.246 0.415,0 0.836,0.132 1.265,0.396 l -0.424,1.142 c -0.301,-0.178 -0.602,-0.267 -0.902,-0.267 -0.269,0 -0.511,0.081 -0.725,0.243 -0.214,0.162 -0.367,0.386 -0.458,0.673 -0.137,0.438 -0.205,0.916 -0.205,1.436 v 3.801 z"
   id="path46" />&#10;		<path
   d="m 336.121,43.402 v -1.415 h 1.23 v 1.415 z m 0,8.607 v -7.26 h 1.23 v 7.26 z"
   id="path47" />&#10;		<path
   d="m 338.732,49.842 1.217,-0.191 c 0.068,0.488 0.259,0.861 0.571,1.121 0.312,0.26 0.748,0.39 1.309,0.39 0.565,0 0.984,-0.115 1.258,-0.345 0.274,-0.23 0.41,-0.5 0.41,-0.81 0,-0.278 -0.121,-0.497 -0.362,-0.656 -0.169,-0.109 -0.588,-0.249 -1.258,-0.417 -0.902,-0.228 -1.528,-0.425 -1.876,-0.591 -0.35,-0.167 -0.613,-0.396 -0.793,-0.69 -0.181,-0.294 -0.271,-0.619 -0.271,-0.974 0,-0.324 0.074,-0.623 0.222,-0.899 0.148,-0.276 0.351,-0.505 0.605,-0.687 0.191,-0.141 0.452,-0.261 0.783,-0.359 0.33,-0.098 0.685,-0.147 1.063,-0.147 0.569,0 1.07,0.082 1.5,0.246 0.432,0.164 0.749,0.386 0.954,0.667 0.205,0.281 0.347,0.655 0.424,1.125 l -1.203,0.164 c -0.055,-0.374 -0.213,-0.666 -0.476,-0.875 -0.262,-0.209 -0.632,-0.314 -1.11,-0.314 -0.565,0 -0.969,0.093 -1.21,0.28 -0.241,0.187 -0.362,0.406 -0.362,0.656 0,0.16 0.05,0.303 0.15,0.431 0.101,0.132 0.258,0.242 0.472,0.328 0.123,0.045 0.485,0.15 1.087,0.314 0.87,0.232 1.478,0.423 1.821,0.571 0.345,0.148 0.614,0.363 0.811,0.646 0.197,0.283 0.294,0.633 0.294,1.053 0,0.41 -0.12,0.796 -0.358,1.159 -0.24,0.362 -0.585,0.643 -1.036,0.841 -0.451,0.198 -0.962,0.297 -1.531,0.297 -0.943,0 -1.662,-0.196 -2.157,-0.588 -0.495,-0.395 -0.811,-0.976 -0.948,-1.746 z"
   id="path48" />&#10;		<path
   d="m 348.911,50.908 0.178,1.087 c -0.347,0.073 -0.656,0.109 -0.93,0.109 -0.446,0 -0.793,-0.071 -1.039,-0.212 -0.246,-0.141 -0.419,-0.327 -0.52,-0.557 -0.101,-0.23 -0.15,-0.714 -0.15,-1.453 v -4.177 h -0.902 v -0.957 h 0.902 V 42.95 l 1.224,-0.738 v 2.536 h 1.237 v 0.957 h -1.237 v 4.245 c 0,0.351 0.021,0.577 0.065,0.677 0.043,0.1 0.113,0.18 0.211,0.239 0.099,0.059 0.238,0.089 0.421,0.089 0.137,0.001 0.317,-0.015 0.54,-0.047 z"
   id="path49" />&#10;		<path
   d="m 350.121,43.402 v -1.415 h 1.23 v 1.415 z m 0,8.607 v -7.26 h 1.23 v 7.26 z"
   id="path50" />&#10;		<path
   d="m 352.732,49.842 1.217,-0.191 c 0.068,0.488 0.259,0.861 0.571,1.121 0.312,0.26 0.748,0.39 1.309,0.39 0.565,0 0.984,-0.115 1.258,-0.345 0.274,-0.23 0.41,-0.5 0.41,-0.81 0,-0.278 -0.121,-0.497 -0.362,-0.656 -0.169,-0.109 -0.588,-0.249 -1.258,-0.417 -0.902,-0.228 -1.528,-0.425 -1.876,-0.591 -0.35,-0.167 -0.613,-0.396 -0.793,-0.69 -0.181,-0.294 -0.271,-0.619 -0.271,-0.974 0,-0.324 0.074,-0.623 0.222,-0.899 0.148,-0.276 0.351,-0.505 0.605,-0.687 0.191,-0.141 0.452,-0.261 0.783,-0.359 0.33,-0.098 0.685,-0.147 1.063,-0.147 0.569,0 1.07,0.082 1.5,0.246 0.432,0.164 0.749,0.386 0.954,0.667 0.205,0.281 0.347,0.655 0.424,1.125 l -1.203,0.164 c -0.055,-0.374 -0.213,-0.666 -0.476,-0.875 -0.262,-0.209 -0.632,-0.314 -1.11,-0.314 -0.565,0 -0.969,0.093 -1.21,0.28 -0.241,0.187 -0.362,0.406 -0.362,0.656 0,0.16 0.05,0.303 0.15,0.431 0.101,0.132 0.258,0.242 0.472,0.328 0.123,0.045 0.485,0.15 1.087,0.314 0.87,0.232 1.478,0.423 1.821,0.571 0.345,0.148 0.614,0.363 0.811,0.646 0.197,0.283 0.294,0.633 0.294,1.053 0,0.41 -0.12,0.796 -0.358,1.159 -0.24,0.362 -0.585,0.643 -1.036,0.841 -0.451,0.198 -0.962,0.297 -1.531,0.297 -0.943,0 -1.662,-0.196 -2.157,-0.588 -0.495,-0.395 -0.811,-0.976 -0.948,-1.746 z"
   id="path51" />&#10;		<path
   d="m 364.962,49.35 1.21,0.157 c -0.132,0.834 -0.471,1.487 -1.015,1.958 -0.545,0.472 -1.214,0.708 -2.007,0.708 -0.993,0 -1.792,-0.325 -2.396,-0.974 -0.604,-0.649 -0.906,-1.58 -0.906,-2.792 0,-0.784 0.13,-1.47 0.39,-2.058 0.26,-0.588 0.655,-1.029 1.187,-1.323 0.53,-0.294 1.108,-0.441 1.732,-0.441 0.788,0 1.434,0.199 1.935,0.598 0.501,0.399 0.822,0.965 0.964,1.699 l -1.196,0.185 c -0.114,-0.488 -0.315,-0.854 -0.604,-1.101 -0.29,-0.246 -0.64,-0.369 -1.05,-0.369 -0.62,0 -1.123,0.222 -1.511,0.667 -0.388,0.445 -0.581,1.147 -0.581,2.109 0,0.975 0.187,1.684 0.561,2.126 0.374,0.442 0.861,0.663 1.463,0.663 0.483,0 0.887,-0.148 1.21,-0.444 0.323,-0.296 0.527,-0.753 0.614,-1.368 z"
   id="path52" />&#10;		<path
   d="M 367.225,52.009 V 41.987 h 1.23 v 3.596 c 0.574,-0.666 1.299,-0.998 2.174,-0.998 0.538,0 1.005,0.106 1.401,0.318 0.396,0.212 0.68,0.505 0.852,0.878 0.17,0.374 0.256,0.916 0.256,1.627 v 4.601 h -1.23 v -4.601 c 0,-0.615 -0.133,-1.063 -0.4,-1.343 -0.266,-0.28 -0.644,-0.42 -1.131,-0.42 -0.364,0 -0.707,0.095 -1.029,0.284 -0.32,0.189 -0.55,0.445 -0.687,0.769 -0.137,0.324 -0.205,0.77 -0.205,1.34 v 3.972 h -1.231 z"
   id="path53" />&#10;		<path
   d="m 379.98,49.671 1.271,0.157 c -0.2,0.743 -0.572,1.319 -1.114,1.729 -0.542,0.41 -1.235,0.615 -2.078,0.615 -1.062,0 -1.904,-0.327 -2.525,-0.981 -0.623,-0.654 -0.934,-1.571 -0.934,-2.751 0,-1.221 0.314,-2.169 0.943,-2.844 0.629,-0.675 1.444,-1.012 2.447,-1.012 0.971,0 1.764,0.331 2.379,0.991 0.615,0.66 0.923,1.59 0.923,2.789 0,0.073 -0.002,0.182 -0.007,0.328 h -5.414 c 0.046,0.797 0.271,1.408 0.677,1.832 0.406,0.424 0.911,0.636 1.518,0.636 0.451,0 0.836,-0.119 1.155,-0.355 0.319,-0.236 0.573,-0.615 0.759,-1.134 z m -4.04,-1.989 h 4.054 c -0.055,-0.611 -0.21,-1.069 -0.465,-1.374 -0.392,-0.474 -0.9,-0.711 -1.524,-0.711 -0.565,0 -1.04,0.189 -1.426,0.567 -0.385,0.378 -0.598,0.884 -0.639,1.518 z"
   id="path54" />&#10;		<path
   d="m 277.462,65.589 1.251,-0.109 c 0.06,0.501 0.197,0.913 0.413,1.234 0.217,0.321 0.553,0.581 1.009,0.779 0.456,0.198 0.969,0.297 1.538,0.297 0.506,0 0.952,-0.075 1.34,-0.226 0.388,-0.151 0.676,-0.356 0.865,-0.619 0.188,-0.262 0.283,-0.548 0.283,-0.858 0,-0.314 -0.091,-0.589 -0.273,-0.824 -0.182,-0.235 -0.483,-0.432 -0.902,-0.591 -0.269,-0.105 -0.863,-0.268 -1.784,-0.489 -0.921,-0.221 -1.565,-0.43 -1.935,-0.625 -0.479,-0.25 -0.835,-0.562 -1.07,-0.933 -0.234,-0.372 -0.352,-0.787 -0.352,-1.248 0,-0.506 0.144,-0.979 0.431,-1.418 0.287,-0.439 0.706,-0.773 1.258,-1.001 0.552,-0.228 1.164,-0.342 1.839,-0.342 0.743,0 1.398,0.12 1.965,0.359 0.568,0.239 1.004,0.591 1.31,1.056 0.306,0.465 0.47,0.991 0.492,1.579 l -1.271,0.096 c -0.068,-0.633 -0.3,-1.112 -0.694,-1.436 -0.394,-0.324 -0.976,-0.485 -1.746,-0.485 -0.802,0 -1.387,0.147 -1.754,0.441 -0.366,0.294 -0.55,0.648 -0.55,1.063 0,0.36 0.13,0.656 0.39,0.889 0.255,0.232 0.922,0.471 2,0.714 1.077,0.244 1.816,0.457 2.218,0.639 0.583,0.269 1.014,0.609 1.292,1.022 0.278,0.413 0.417,0.888 0.417,1.425 0,0.533 -0.152,1.036 -0.458,1.507 -0.306,0.471 -0.744,0.838 -1.316,1.101 -0.571,0.262 -1.215,0.393 -1.931,0.393 -0.907,0 -1.667,-0.132 -2.28,-0.396 -0.612,-0.264 -1.094,-0.662 -1.441,-1.193 -0.353,-0.531 -0.536,-1.131 -0.554,-1.801 z"
   id="path55" />&#10;		<path
   d="m 289.78,67.708 0.178,1.087 c -0.347,0.073 -0.656,0.109 -0.93,0.109 -0.446,0 -0.793,-0.071 -1.039,-0.212 -0.246,-0.141 -0.419,-0.327 -0.52,-0.557 -0.101,-0.23 -0.15,-0.714 -0.15,-1.453 v -4.177 h -0.902 v -0.957 h 0.902 V 59.75 l 1.224,-0.738 v 2.536 h 1.237 v 0.957 h -1.237 v 4.245 c 0,0.351 0.021,0.577 0.065,0.677 0.043,0.1 0.113,0.18 0.211,0.239 0.099,0.059 0.238,0.089 0.421,0.089 0.137,0.001 0.317,-0.015 0.54,-0.047 z"
   id="path56" />&#10;		<path
   d="m 290.97,68.809 v -7.26 h 1.107 v 1.101 c 0.282,-0.515 0.543,-0.854 0.783,-1.019 0.238,-0.164 0.502,-0.246 0.789,-0.246 0.415,0 0.836,0.132 1.265,0.396 l -0.424,1.142 c -0.301,-0.178 -0.602,-0.267 -0.902,-0.267 -0.269,0 -0.511,0.081 -0.725,0.243 -0.214,0.162 -0.367,0.386 -0.458,0.673 -0.137,0.438 -0.205,0.916 -0.205,1.436 v 3.801 z"
   id="path57" />&#10;		<path
   d="m 300.383,67.913 c -0.456,0.387 -0.895,0.661 -1.315,0.82 -0.422,0.16 -0.874,0.239 -1.357,0.239 -0.798,0 -1.41,-0.195 -1.839,-0.584 -0.429,-0.389 -0.643,-0.888 -0.643,-1.494 0,-0.355 0.081,-0.68 0.243,-0.974 0.161,-0.294 0.373,-0.53 0.635,-0.708 0.263,-0.178 0.558,-0.312 0.886,-0.403 0.241,-0.064 0.606,-0.125 1.094,-0.185 0.993,-0.119 1.725,-0.26 2.194,-0.424 0.005,-0.168 0.007,-0.276 0.007,-0.321 0,-0.501 -0.116,-0.854 -0.349,-1.06 -0.314,-0.278 -0.781,-0.417 -1.401,-0.417 -0.579,0 -1.006,0.102 -1.282,0.304 -0.275,0.203 -0.479,0.562 -0.611,1.077 l -1.203,-0.164 c 0.109,-0.515 0.289,-0.931 0.54,-1.248 0.251,-0.317 0.613,-0.561 1.087,-0.731 0.474,-0.17 1.023,-0.256 1.647,-0.256 0.62,0 1.123,0.073 1.511,0.219 0.388,0.146 0.672,0.329 0.854,0.55 0.182,0.221 0.31,0.5 0.383,0.837 0.041,0.209 0.062,0.588 0.062,1.135 v 1.641 c 0,1.144 0.026,1.867 0.078,2.17 0.053,0.303 0.156,0.594 0.312,0.872 h -1.285 c -0.13,-0.255 -0.212,-0.553 -0.248,-0.895 z m -0.103,-2.748 c -0.446,0.182 -1.116,0.337 -2.01,0.465 -0.506,0.073 -0.863,0.155 -1.073,0.246 -0.21,0.091 -0.371,0.225 -0.485,0.4 -0.114,0.175 -0.171,0.37 -0.171,0.584 0,0.328 0.124,0.602 0.372,0.82 0.249,0.219 0.612,0.328 1.091,0.328 0.474,0 0.896,-0.104 1.265,-0.311 0.369,-0.207 0.641,-0.491 0.813,-0.851 0.132,-0.278 0.198,-0.688 0.198,-1.23 z"
   id="path58" />&#10;		<path
   d="M 303.432,68.809 V 58.787 h 1.23 v 3.596 c 0.574,-0.666 1.299,-0.998 2.174,-0.998 0.538,0 1.005,0.106 1.401,0.318 0.396,0.212 0.68,0.505 0.852,0.878 0.17,0.374 0.256,0.916 0.256,1.627 v 4.601 h -1.23 v -4.601 c 0,-0.615 -0.133,-1.063 -0.4,-1.343 -0.266,-0.28 -0.644,-0.42 -1.131,-0.42 -0.364,0 -0.707,0.095 -1.029,0.284 -0.32,0.189 -0.55,0.445 -0.687,0.769 -0.137,0.324 -0.205,0.77 -0.205,1.34 v 3.972 h -1.231 z"
   id="path59" />&#10;		<path
   d="M 311.19,68.809 V 58.787 h 1.23 v 10.021 h -1.23 z"
   id="path60" />&#10;		<path
   d="m 319.086,68.809 v -1.066 c -0.565,0.82 -1.333,1.23 -2.304,1.23 -0.429,0 -0.828,-0.082 -1.199,-0.246 -0.372,-0.164 -0.647,-0.37 -0.828,-0.619 -0.18,-0.249 -0.306,-0.553 -0.379,-0.913 -0.05,-0.242 -0.075,-0.625 -0.075,-1.148 v -4.498 h 1.23 v 4.026 c 0,0.643 0.025,1.076 0.075,1.299 0.077,0.324 0.241,0.578 0.492,0.762 0.251,0.184 0.561,0.277 0.93,0.277 0.369,0 0.716,-0.095 1.039,-0.284 0.323,-0.189 0.553,-0.447 0.688,-0.772 0.134,-0.326 0.201,-0.799 0.201,-1.418 v -3.89 h 1.23 v 7.26 z"
   id="path61" />&#10;		<path
   d="m 322.114,68.809 v -7.26 h 1.107 v 1.032 c 0.533,-0.797 1.304,-1.196 2.311,-1.196 0.438,0 0.84,0.079 1.207,0.236 0.366,0.157 0.641,0.363 0.823,0.619 0.182,0.256 0.31,0.558 0.383,0.909 0.046,0.228 0.068,0.626 0.068,1.196 v 4.464 h -1.23 v -4.416 c 0,-0.501 -0.048,-0.876 -0.144,-1.125 -0.096,-0.249 -0.266,-0.447 -0.51,-0.595 -0.243,-0.148 -0.529,-0.222 -0.857,-0.222 -0.524,0 -0.977,0.167 -1.357,0.499 -0.38,0.333 -0.57,0.964 -0.57,1.894 v 3.965 z"
   id="path62" />&#10;		<path
   d="m 329.675,69.41 1.196,0.178 c 0.05,0.369 0.189,0.638 0.417,0.807 0.306,0.228 0.723,0.342 1.251,0.342 0.569,0 1.01,-0.114 1.319,-0.342 0.309,-0.228 0.52,-0.547 0.629,-0.957 0.063,-0.25 0.094,-0.777 0.089,-1.579 -0.538,0.633 -1.208,0.95 -2.01,0.95 -0.998,0 -1.771,-0.36 -2.317,-1.08 -0.546,-0.72 -0.82,-1.583 -0.82,-2.591 0,-0.693 0.125,-1.332 0.376,-1.917 0.251,-0.585 0.614,-1.038 1.091,-1.357 0.476,-0.319 1.035,-0.479 1.678,-0.479 0.856,0 1.563,0.346 2.119,1.039 v -0.875 h 1.135 v 6.275 c 0,1.13 -0.115,1.931 -0.346,2.403 -0.229,0.472 -0.594,0.844 -1.094,1.118 -0.498,0.273 -1.112,0.41 -1.842,0.41 -0.866,0 -1.565,-0.195 -2.099,-0.584 -0.534,-0.389 -0.791,-0.977 -0.772,-1.761 z m 1.018,-4.361 c 0,0.953 0.189,1.647 0.567,2.085 0.378,0.438 0.853,0.656 1.422,0.656 0.565,0 1.039,-0.218 1.422,-0.653 0.383,-0.435 0.574,-1.118 0.574,-2.047 0,-0.889 -0.197,-1.559 -0.592,-2.01 -0.394,-0.451 -0.869,-0.677 -1.425,-0.677 -0.547,0 -1.012,0.222 -1.395,0.667 -0.383,0.445 -0.573,1.104 -0.573,1.979 z"
   id="path63" />&#10;	</g>&#10;	<g
   id="g78">&#10;		<path
   d="m 282.603,87.395 v -1.176 l 4.245,-0.007 v 3.719 c -0.651,0.52 -1.324,0.91 -2.017,1.172 -0.693,0.262 -1.403,0.393 -2.133,0.393 -0.984,0 -1.879,-0.211 -2.684,-0.632 -0.804,-0.421 -1.411,-1.031 -1.821,-1.829 -0.41,-0.798 -0.615,-1.688 -0.615,-2.673 0,-0.975 0.204,-1.886 0.612,-2.731 0.407,-0.845 0.994,-1.473 1.76,-1.883 0.766,-0.41 1.647,-0.615 2.646,-0.615 0.725,0 1.38,0.117 1.966,0.352 0.585,0.235 1.044,0.562 1.377,0.981 0.333,0.419 0.586,0.966 0.759,1.641 l -1.196,0.328 c -0.15,-0.51 -0.337,-0.912 -0.561,-1.203 -0.224,-0.291 -0.542,-0.525 -0.957,-0.701 -0.415,-0.176 -0.875,-0.263 -1.381,-0.263 -0.606,0 -1.13,0.092 -1.572,0.277 -0.442,0.185 -0.799,0.427 -1.07,0.728 -0.271,0.301 -0.481,0.631 -0.632,0.991 -0.255,0.62 -0.383,1.292 -0.383,2.017 0,0.893 0.153,1.641 0.462,2.242 0.307,0.602 0.755,1.048 1.343,1.34 0.588,0.292 1.212,0.438 1.873,0.438 0.574,0 1.135,-0.11 1.682,-0.332 0.547,-0.222 0.962,-0.457 1.244,-0.708 v -1.866 z"
   id="path64" />&#10;		<path
   d="m 293.615,88.987 1.271,0.157 c -0.2,0.743 -0.572,1.319 -1.114,1.729 -0.542,0.41 -1.235,0.615 -2.078,0.615 -1.062,0 -1.904,-0.327 -2.525,-0.981 -0.623,-0.654 -0.934,-1.571 -0.934,-2.751 0,-1.221 0.314,-2.169 0.943,-2.844 0.629,-0.675 1.444,-1.012 2.447,-1.012 0.971,0 1.764,0.331 2.379,0.991 0.615,0.66 0.923,1.59 0.923,2.789 0,0.073 -0.002,0.182 -0.007,0.328 h -5.414 c 0.046,0.797 0.271,1.408 0.677,1.832 0.406,0.424 0.911,0.636 1.518,0.636 0.451,0 0.836,-0.119 1.155,-0.355 0.319,-0.236 0.573,-0.614 0.759,-1.134 z m -4.04,-1.989 h 4.054 c -0.055,-0.611 -0.21,-1.069 -0.465,-1.374 -0.392,-0.474 -0.9,-0.711 -1.524,-0.711 -0.565,0 -1.04,0.189 -1.426,0.567 -0.385,0.379 -0.598,0.885 -0.639,1.518 z"
   id="path65" />&#10;		<path
   d="m 295.939,89.158 1.217,-0.191 c 0.068,0.488 0.259,0.861 0.571,1.121 0.312,0.26 0.748,0.39 1.309,0.39 0.565,0 0.984,-0.115 1.258,-0.345 0.274,-0.23 0.41,-0.5 0.41,-0.81 0,-0.278 -0.121,-0.497 -0.362,-0.656 -0.169,-0.109 -0.588,-0.249 -1.258,-0.417 -0.902,-0.228 -1.528,-0.425 -1.876,-0.591 -0.35,-0.167 -0.613,-0.396 -0.793,-0.69 -0.181,-0.294 -0.271,-0.619 -0.271,-0.974 0,-0.324 0.074,-0.623 0.222,-0.899 0.148,-0.276 0.351,-0.505 0.605,-0.687 0.191,-0.141 0.452,-0.261 0.783,-0.359 0.33,-0.098 0.685,-0.147 1.063,-0.147 0.569,0 1.07,0.082 1.5,0.246 0.432,0.164 0.749,0.386 0.954,0.667 0.205,0.281 0.347,0.655 0.424,1.125 l -1.203,0.164 c -0.055,-0.374 -0.213,-0.666 -0.476,-0.875 -0.262,-0.209 -0.632,-0.314 -1.11,-0.314 -0.565,0 -0.969,0.093 -1.21,0.28 -0.241,0.187 -0.362,0.406 -0.362,0.656 0,0.16 0.05,0.303 0.15,0.431 0.101,0.132 0.258,0.242 0.472,0.328 0.123,0.045 0.485,0.15 1.087,0.314 0.87,0.232 1.478,0.423 1.821,0.571 0.345,0.148 0.614,0.363 0.811,0.646 0.197,0.283 0.294,0.633 0.294,1.053 0,0.41 -0.12,0.796 -0.358,1.159 -0.24,0.362 -0.585,0.643 -1.036,0.841 -0.451,0.198 -0.962,0.297 -1.531,0.297 -0.943,0 -1.662,-0.196 -2.157,-0.588 -0.495,-0.395 -0.811,-0.976 -0.948,-1.746 z"
   id="path66" />&#10;		<path
   d="m 308.169,90.43 c -0.456,0.387 -0.895,0.661 -1.316,0.82 -0.421,0.16 -0.873,0.239 -1.356,0.239 -0.798,0 -1.41,-0.195 -1.839,-0.584 -0.429,-0.389 -0.643,-0.888 -0.643,-1.494 0,-0.355 0.081,-0.68 0.242,-0.974 0.162,-0.294 0.374,-0.53 0.637,-0.708 0.262,-0.178 0.557,-0.312 0.885,-0.403 0.241,-0.064 0.606,-0.125 1.094,-0.185 0.993,-0.119 1.725,-0.26 2.194,-0.424 0.005,-0.168 0.007,-0.276 0.007,-0.321 0,-0.501 -0.116,-0.854 -0.349,-1.06 -0.314,-0.278 -0.781,-0.417 -1.401,-0.417 -0.579,0 -1.006,0.102 -1.281,0.304 -0.276,0.203 -0.48,0.562 -0.612,1.077 l -1.203,-0.164 c 0.109,-0.515 0.289,-0.931 0.54,-1.248 0.251,-0.317 0.613,-0.561 1.087,-0.731 0.474,-0.17 1.023,-0.256 1.647,-0.256 0.62,0 1.123,0.073 1.511,0.219 0.388,0.146 0.672,0.329 0.854,0.55 0.182,0.221 0.31,0.5 0.383,0.837 0.041,0.209 0.062,0.588 0.062,1.135 v 1.641 c 0,1.144 0.026,1.867 0.079,2.17 0.052,0.303 0.155,0.594 0.311,0.872 h -1.285 c -0.13,-0.255 -0.212,-0.554 -0.248,-0.895 z m -0.103,-2.748 c -0.446,0.182 -1.116,0.337 -2.01,0.465 -0.506,0.073 -0.863,0.155 -1.073,0.246 -0.21,0.091 -0.371,0.225 -0.485,0.4 -0.114,0.175 -0.171,0.37 -0.171,0.584 0,0.328 0.124,0.602 0.373,0.82 0.248,0.219 0.611,0.328 1.09,0.328 0.474,0 0.896,-0.104 1.265,-0.311 0.369,-0.207 0.641,-0.491 0.813,-0.851 0.132,-0.278 0.198,-0.688 0.198,-1.23 z"
   id="path67" />&#10;		<path
   d="m 311.218,91.325 v -7.26 h 1.101 v 1.019 c 0.228,-0.355 0.531,-0.642 0.909,-0.858 0.378,-0.216 0.809,-0.325 1.292,-0.325 0.538,0 0.979,0.112 1.323,0.335 0.344,0.223 0.586,0.536 0.728,0.937 0.574,-0.848 1.321,-1.271 2.242,-1.271 0.72,0 1.273,0.199 1.661,0.598 0.388,0.399 0.581,1.013 0.581,1.842 v 4.983 h -1.224 v -4.573 c 0,-0.492 -0.04,-0.847 -0.119,-1.063 -0.08,-0.216 -0.225,-0.391 -0.435,-0.523 -0.21,-0.132 -0.456,-0.198 -0.738,-0.198 -0.511,0 -0.935,0.17 -1.271,0.509 -0.336,0.339 -0.506,0.883 -0.506,1.63 v 4.218 h -1.23 v -4.717 c 0,-0.547 -0.101,-0.957 -0.301,-1.23 -0.2,-0.273 -0.528,-0.41 -0.984,-0.41 -0.347,0 -0.667,0.091 -0.96,0.273 -0.295,0.182 -0.508,0.449 -0.64,0.8 -0.132,0.351 -0.198,0.857 -0.198,1.518 v 3.767 h -1.231 z"
   id="path68" />&#10;		<path
   d="m 325.566,90.225 0.178,1.087 c -0.347,0.073 -0.656,0.109 -0.93,0.109 -0.446,0 -0.793,-0.071 -1.039,-0.212 -0.246,-0.141 -0.419,-0.327 -0.52,-0.557 -0.101,-0.23 -0.15,-0.714 -0.15,-1.453 v -4.177 h -0.902 v -0.957 h 0.902 v -1.798 l 1.224,-0.738 v 2.536 h 1.237 v 0.957 h -1.237 v 4.245 c 0,0.351 0.021,0.577 0.064,0.677 0.044,0.1 0.114,0.18 0.213,0.239 0.098,0.059 0.237,0.089 0.42,0.089 0.137,0 0.317,-0.016 0.54,-0.047 z"
   id="path69" />&#10;		<path
   d="m 326.277,89.158 1.217,-0.191 c 0.068,0.488 0.259,0.861 0.571,1.121 0.312,0.26 0.748,0.39 1.309,0.39 0.565,0 0.984,-0.115 1.258,-0.345 0.274,-0.23 0.41,-0.5 0.41,-0.81 0,-0.278 -0.121,-0.497 -0.362,-0.656 -0.169,-0.109 -0.588,-0.249 -1.258,-0.417 -0.902,-0.228 -1.528,-0.425 -1.876,-0.591 -0.35,-0.167 -0.613,-0.396 -0.793,-0.69 -0.181,-0.294 -0.271,-0.619 -0.271,-0.974 0,-0.324 0.074,-0.623 0.222,-0.899 0.148,-0.276 0.351,-0.505 0.605,-0.687 0.191,-0.141 0.452,-0.261 0.783,-0.359 0.33,-0.098 0.685,-0.147 1.063,-0.147 0.569,0 1.07,0.082 1.5,0.246 0.432,0.164 0.749,0.386 0.954,0.667 0.205,0.281 0.347,0.655 0.424,1.125 l -1.203,0.164 c -0.055,-0.374 -0.213,-0.666 -0.476,-0.875 -0.262,-0.209 -0.632,-0.314 -1.11,-0.314 -0.565,0 -0.969,0.093 -1.21,0.28 -0.241,0.187 -0.362,0.406 -0.362,0.656 0,0.16 0.05,0.303 0.15,0.431 0.101,0.132 0.258,0.242 0.472,0.328 0.123,0.045 0.485,0.15 1.087,0.314 0.87,0.232 1.478,0.423 1.821,0.571 0.345,0.148 0.614,0.363 0.811,0.646 0.197,0.283 0.294,0.633 0.294,1.053 0,0.41 -0.12,0.796 -0.358,1.159 -0.24,0.362 -0.585,0.643 -1.036,0.841 -0.451,0.198 -0.962,0.297 -1.531,0.297 -0.943,0 -1.662,-0.196 -2.157,-0.588 -0.496,-0.395 -0.811,-0.976 -0.948,-1.746 z"
   id="path70" />&#10;		<path
   d="m 336.456,90.225 0.178,1.087 c -0.347,0.073 -0.656,0.109 -0.93,0.109 -0.446,0 -0.793,-0.071 -1.039,-0.212 -0.246,-0.141 -0.419,-0.327 -0.52,-0.557 -0.101,-0.23 -0.15,-0.714 -0.15,-1.453 v -4.177 h -0.902 v -0.957 h 0.902 v -1.798 l 1.224,-0.738 v 2.536 h 1.237 v 0.957 h -1.237 v 4.245 c 0,0.351 0.021,0.577 0.065,0.677 0.043,0.1 0.113,0.18 0.211,0.239 0.099,0.059 0.238,0.089 0.421,0.089 0.137,0 0.316,-0.016 0.54,-0.047 z"
   id="path71" />&#10;		<path
   d="m 337.646,91.325 v -7.26 h 1.107 v 1.101 c 0.282,-0.515 0.543,-0.854 0.783,-1.019 0.238,-0.164 0.502,-0.246 0.789,-0.246 0.415,0 0.836,0.132 1.265,0.396 l -0.424,1.142 c -0.301,-0.178 -0.602,-0.267 -0.902,-0.267 -0.269,0 -0.511,0.081 -0.725,0.243 -0.214,0.162 -0.367,0.386 -0.458,0.673 -0.137,0.438 -0.205,0.916 -0.205,1.436 v 3.801 z"
   id="path72" />&#10;		<path
   d="m 347.059,90.43 c -0.456,0.387 -0.895,0.661 -1.315,0.82 -0.422,0.16 -0.874,0.239 -1.357,0.239 -0.798,0 -1.41,-0.195 -1.839,-0.584 -0.429,-0.389 -0.643,-0.888 -0.643,-1.494 0,-0.355 0.081,-0.68 0.243,-0.974 0.161,-0.294 0.373,-0.53 0.635,-0.708 0.263,-0.178 0.558,-0.312 0.886,-0.403 0.241,-0.064 0.606,-0.125 1.094,-0.185 0.993,-0.119 1.725,-0.26 2.194,-0.424 0.005,-0.168 0.007,-0.276 0.007,-0.321 0,-0.501 -0.116,-0.854 -0.349,-1.06 -0.314,-0.278 -0.781,-0.417 -1.401,-0.417 -0.579,0 -1.006,0.102 -1.282,0.304 -0.275,0.203 -0.479,0.562 -0.611,1.077 l -1.203,-0.164 c 0.109,-0.515 0.289,-0.931 0.54,-1.248 0.251,-0.317 0.613,-0.561 1.087,-0.731 0.474,-0.17 1.023,-0.256 1.647,-0.256 0.62,0 1.123,0.073 1.511,0.219 0.388,0.146 0.672,0.329 0.854,0.55 0.182,0.221 0.31,0.5 0.383,0.837 0.041,0.209 0.062,0.588 0.062,1.135 v 1.641 c 0,1.144 0.026,1.867 0.078,2.17 0.053,0.303 0.156,0.594 0.312,0.872 h -1.285 c -0.13,-0.255 -0.212,-0.554 -0.248,-0.895 z m -0.103,-2.748 c -0.446,0.182 -1.116,0.337 -2.01,0.465 -0.506,0.073 -0.863,0.155 -1.073,0.246 -0.21,0.091 -0.371,0.225 -0.485,0.4 -0.114,0.175 -0.171,0.37 -0.171,0.584 0,0.328 0.124,0.602 0.372,0.82 0.249,0.219 0.612,0.328 1.091,0.328 0.474,0 0.896,-0.104 1.265,-0.311 0.369,-0.207 0.641,-0.491 0.813,-0.851 0.132,-0.278 0.198,-0.688 0.198,-1.23 z"
   id="path73" />&#10;		<path
   d="M 350.107,91.325 V 81.304 h 1.23 V 84.9 c 0.574,-0.666 1.299,-0.998 2.174,-0.998 0.538,0 1.005,0.106 1.401,0.318 0.396,0.212 0.68,0.505 0.852,0.878 0.17,0.374 0.256,0.916 0.256,1.627 v 4.601 h -1.23 v -4.601 c 0,-0.615 -0.133,-1.063 -0.4,-1.343 -0.266,-0.28 -0.644,-0.42 -1.131,-0.42 -0.364,0 -0.707,0.095 -1.029,0.284 -0.32,0.189 -0.55,0.445 -0.687,0.769 -0.137,0.324 -0.205,0.77 -0.205,1.34 v 3.972 h -1.231 z"
   id="path74" />&#10;		<path
   d="M 357.866,91.325 V 81.304 h 1.23 v 10.021 z"
   id="path75" />&#10;		<path
   d="m 365.762,91.325 v -1.066 c -0.565,0.82 -1.333,1.23 -2.304,1.23 -0.429,0 -0.828,-0.082 -1.199,-0.246 -0.372,-0.164 -0.647,-0.37 -0.828,-0.619 -0.18,-0.249 -0.306,-0.553 -0.379,-0.913 -0.05,-0.242 -0.075,-0.625 -0.075,-1.148 v -4.498 h 1.23 v 4.026 c 0,0.643 0.025,1.076 0.075,1.299 0.077,0.324 0.241,0.578 0.492,0.762 0.251,0.184 0.561,0.277 0.93,0.277 0.369,0 0.716,-0.095 1.039,-0.284 0.323,-0.189 0.553,-0.447 0.688,-0.772 0.134,-0.326 0.201,-0.799 0.201,-1.418 v -3.89 h 1.23 v 7.26 z"
   id="path76" />&#10;		<path
   d="m 368.79,91.325 v -7.26 h 1.107 v 1.032 c 0.533,-0.797 1.304,-1.196 2.311,-1.196 0.438,0 0.84,0.079 1.207,0.236 0.366,0.157 0.641,0.363 0.823,0.619 0.182,0.256 0.31,0.558 0.383,0.909 0.046,0.228 0.068,0.626 0.068,1.196 v 4.464 h -1.23 v -4.416 c 0,-0.501 -0.048,-0.876 -0.144,-1.125 -0.096,-0.249 -0.266,-0.447 -0.51,-0.595 -0.243,-0.148 -0.529,-0.222 -0.857,-0.222 -0.524,0 -0.977,0.167 -1.357,0.499 -0.38,0.333 -0.57,0.964 -0.57,1.894 v 3.965 z"
   id="path77" />&#10;		<path
   d="m 376.351,91.927 1.196,0.178 c 0.05,0.369 0.189,0.638 0.417,0.807 0.306,0.228 0.723,0.342 1.251,0.342 0.569,0 1.01,-0.114 1.319,-0.342 0.309,-0.228 0.52,-0.547 0.629,-0.957 0.063,-0.25 0.094,-0.777 0.089,-1.579 -0.538,0.633 -1.208,0.95 -2.01,0.95 -0.998,0 -1.771,-0.36 -2.317,-1.08 -0.546,-0.72 -0.82,-1.583 -0.82,-2.591 0,-0.693 0.125,-1.332 0.376,-1.917 0.251,-0.585 0.614,-1.038 1.091,-1.357 0.476,-0.319 1.035,-0.479 1.678,-0.479 0.856,0 1.563,0.346 2.119,1.039 v -0.875 h 1.135 v 6.275 c 0,1.13 -0.115,1.931 -0.346,2.403 -0.229,0.472 -0.594,0.844 -1.094,1.118 -0.498,0.273 -1.112,0.41 -1.842,0.41 -0.866,0 -1.565,-0.195 -2.099,-0.584 -0.534,-0.389 -0.791,-0.978 -0.772,-1.761 z m 1.018,-4.362 c 0,0.953 0.189,1.647 0.567,2.085 0.378,0.438 0.853,0.656 1.422,0.656 0.565,0 1.039,-0.218 1.422,-0.653 0.383,-0.435 0.574,-1.118 0.574,-2.047 0,-0.889 -0.197,-1.559 -0.592,-2.01 -0.394,-0.451 -0.869,-0.677 -1.425,-0.677 -0.547,0 -1.012,0.222 -1.395,0.667 -0.383,0.445 -0.573,1.104 -0.573,1.979 z"
   id="path78" />&#10;	</g>&#10;	<line
   fill="none"
   stroke="#33cc33"
   stroke-width="2"
   stroke-dasharray="4"
   x1="231.216"
   y1="25.875"
   x2="259.216"
   y2="25.875"
   id="line78" />&#10;	<line
   fill="none"
   stroke="#33cc33"
   x1="230.33299"
   y1="56.733002"
   x2="258.33301"
   y2="56.733002"
   id="line79" />&#10;	<line
   fill="none"
   stroke="#ec1c24"
   x1="230.33299"
   y1="87.591003"
   x2="258.33301"
   y2="87.591003"
   id="line80" />&#10;</g>&#10;</svg>
