<?xml version="1.0" encoding="UTF-8" standalone="no"?>
<!-- Generator: Adobe Illustrator 15.1.0, SVG Export Plug-In . SVG Version: 6.00 Build 0)  -->

<svg
   version="1.1"
   id="Ebene_1"
   x="0px"
   y="0px"
   width="841.37799"
   height="494.97601"
   viewBox="0 0 841.378 494.976"
   enable-background="new 0 0 841.378 494.976"
   xml:space="preserve"
   sodipodi:docname="Erzeugung_von Röntgen-Strahlung-Schema_Röntgenröhre.svg"
   xmlns:inkscape="http://www.inkscape.org/namespaces/inkscape"
   xmlns:sodipodi="http://sodipodi.sourceforge.net/DTD/sodipodi-0.dtd"
   xmlns="http://www.w3.org/2000/svg"
   xmlns:svg="http://www.w3.org/2000/svg"><defs
   id="defs181" /><sodipodi:namedview
   id="namedview181"
   pagecolor="#ffffff"
   bordercolor="#000000"
   borderopacity="0.25"
   inkscape:showpageshadow="2"
   inkscape:pageopacity="0.0"
   inkscape:pagecheckerboard="0"
   inkscape:deskcolor="#d1d1d1" />&#10;<path
   fill="none"
   stroke="#ffed00"
   stroke-width="4"
   stroke-miterlimit="10"
   d="M 149.704,299.549"
   id="path1" />&#10;<path
   fill="none"
   stroke="#ffed00"
   stroke-width="4"
   stroke-miterlimit="10"
   d="M 232.058,172.179"
   id="path2" />&#10;&#10;<g
   id="g8">&#10;	&#10;		<line
   fill="none"
   stroke="#b17f4a"
   stroke-width="4"
   stroke-miterlimit="10"
   x1="230.30099"
   y1="139.38499"
   x2="800.75098"
   y2="139.38499"
   id="line3" />&#10;	<g
   id="g7">&#10;		<path
   fill="none"
   stroke="#b17f4a"
   stroke-width="4"
   stroke-miterlimit="10"
   d="m 149.683,265.345 c -1.032,51.737 38.091,126.071 86.096,126.071"
   id="path4" />&#10;		<path
   fill="none"
   stroke="#b17f4a"
   stroke-width="4"
   stroke-miterlimit="10"
   d="m 149.704,270.262 c -1.033,-55.531 38.627,-130.877 86.758,-130.877"
   id="path5" />&#10;		<path
   fill="none"
   stroke="#b17f4a"
   stroke-width="4"
   stroke-miterlimit="10"
   d="M 825.417,265.345 C 825.72,339.01 814.301,391.36 800.102,391.36"
   id="path6" />&#10;		<path
   fill="none"
   stroke="#b17f4a"
   stroke-width="4"
   stroke-miterlimit="10"
   d="M 825.362,266.578 C 825.666,192.912 814.115,139.33 799.914,139.33"
   id="path7" />&#10;		<line
   fill="none"
   stroke="#b17f4a"
   stroke-width="4"
   stroke-miterlimit="10"
   x1="235.77901"
   y1="391.41599"
   x2="800.64001"
   y2="391.35999"
   id="line7" />&#10;	</g>&#10;</g>&#10;<path
   fill="none"
   stroke="#ffed00"
   stroke-width="4"
   stroke-miterlimit="10"
   d="M 113.261,235.307"
   id="path8" />&#10;<path
   fill="none"
   stroke="#ffed00"
   stroke-width="4"
   stroke-miterlimit="10"
   d="M 153.628,205.975"
   id="path9" />&#10;<g
   id="g11">&#10;	<path
   fill="none"
   stroke="#1b181c"
   stroke-width="2"
   d="m 571.672,115.645 c 4.896,0 8.857,-3.957 8.857,-8.875 0,-4.914 -3.962,-8.875 -8.857,-8.875 -4.865,0 -8.824,3.961 -8.824,8.875 0,4.918 3.959,8.875 8.824,8.875 z"
   id="path10" />&#10;	<polyline
   fill="none"
   stroke="#231f20"
   stroke-width="4.0576"
   points="777.321,220.478 777.321,105.783 581.329,105.783  "
   id="polyline10" />&#10;	<line
   fill="none"
   stroke="#231f20"
   stroke-width="4"
   x1="571.68799"
   y1="74.391998"
   x2="571.68799"
   y2="90.391998"
   id="line10" />&#10;	<line
   fill="none"
   stroke="#231f20"
   stroke-width="4"
   x1="563.68799"
   y1="81.933998"
   x2="579.68799"
   y2="81.933998"
   id="line11" />&#10;</g>&#10;<g
   id="g13">&#10;	<path
   fill="none"
   stroke="#1b181c"
   stroke-width="2"
   d="m 525.439,97.895 c -4.867,0 -8.826,3.961 -8.826,8.875 0,4.918 3.959,8.875 8.826,8.875"
   id="path11" />&#10;	<path
   fill="none"
   stroke="#1b181c"
   stroke-width="2"
   d="m 534.265,106.77 c 0,-4.914 -3.958,-8.875 -8.825,-8.875"
   id="path12" />&#10;	<path
   fill="none"
   stroke="#1b181c"
   stroke-width="2"
   d="m 525.439,115.645 c 4.867,0 8.825,-3.957 8.825,-8.875"
   id="path13" />&#10;	<polyline
   fill="none"
   stroke="#231f20"
   stroke-width="3.3016"
   points="138.103,220.732 138.103,107.36 516.613,107.36  "
   id="polyline13" />&#10;	<line
   fill="none"
   stroke="#231f20"
   stroke-width="4"
   x1="517.43903"
   y1="82.391998"
   x2="533.43903"
   y2="82.391998"
   id="line13" />&#10;</g>&#10;<g
   id="WehneltZylinder"
   opacity="0.6">&#10;	<path
   fill="none"
   stroke="#010202"
   stroke-width="0.7798"
   d="m 220.688,192.134 c 4.653,0 7.583,40.585 7.583,68.122 0,27.535 -3.163,68.125 -7.583,68.125"
   id="path14" />&#10;	&#10;		<linearGradient
   id="SVGID_1_"
   gradientUnits="userSpaceOnUse"
   x1="795.72607"
   y1="-283.396"
   x2="795.72607"
   y2="-147.14751"
   gradientTransform="matrix(1,0,0,-1,-522.7012,44.9844)">&#10;		<stop
   offset="0"
   style="stop-color:#404042"
   id="stop14" />&#10;		<stop
   offset="0.7152"
   style="stop-color:#F1F1F2"
   id="stop15" />&#10;		<stop
   offset="1"
   style="stop-color:#6E6F71"
   id="stop16" />&#10;	</linearGradient>&#10;	<path
   opacity="0.8"
   fill="url(#SVGID_1_)"
   stroke="#010202"
   stroke-width="0.655"
   enable-background="new    "
   d="m 333.591,328.38 c 0,0 -108.871,0 -112.147,0 -3.24,0 -8.982,-36.594 -8.982,-66.316 0,-29.718 5.742,-69.933 8.982,-69.933 3.276,0 112.147,0 112.147,0 z"
   id="path16"
   style="fill:url(#SVGID_1_)" />&#10;	<path
   fill="#a6a8ab"
   stroke="#010202"
   stroke-width="0.7798"
   d="m 333.591,192.132 c 4.188,0 9.871,30.502 9.871,68.124 0,37.625 -5.684,68.125 -9.871,68.125 -4.189,0 -10.797,-29.025 -10.797,-66.649 0,-37.623 6.607,-69.6 10.797,-69.6 z"
   id="path17" />&#10;	<path
   fill="#ffffff"
   stroke="#010202"
   stroke-width="0.7798"
   d="m 333.597,233.023 c 1.664,0 3.039,12.18 3.039,27.229 0,15.053 -1.375,27.284 -3.039,27.284 -1.697,0 -3.045,-12.23 -3.045,-27.284 0,-15.049 1.347,-27.229 3.045,-27.229 z"
   id="path18" />&#10;</g>&#10;<g
   id="Gleichspannungsquelle_1_">&#10;	<path
   fill="none"
   stroke="#1b181c"
   stroke-width="2"
   d="m 111.416,287.26 c 4.88,0 8.842,3.959 8.842,8.825 0,4.879 -3.962,8.84 -8.842,8.84 -4.866,0 -8.826,-3.961 -8.826,-8.84 0,-4.866 3.96,-8.825 8.826,-8.825 z"
   id="path19" />&#10;</g>&#10;<line
   fill="none"
   stroke="#010202"
   stroke-width="4"
   x1="120.258"
   y1="296.08499"
   x2="278.147"
   y2="296.09299"
   id="line19" />&#10;<g
   id="Gleichspannungsquelle_2_">&#10;	<path
   fill="none"
   stroke="#1b181c"
   stroke-width="2"
   d="m 111.416,211.899 c 4.88,0 8.842,3.959 8.842,8.825 0,4.879 -3.962,8.84 -8.842,8.84 -4.866,0 -8.826,-3.961 -8.826,-8.84 0,-4.866 3.96,-8.825 8.826,-8.825 z"
   id="path20" />&#10;</g>&#10;<line
   fill="none"
   stroke="#010202"
   stroke-width="4"
   x1="120.258"
   y1="220.724"
   x2="278.147"
   y2="220.73199"
   id="line20" />&#10;<g
   id="g29">&#10;	<path
   fill="none"
   stroke="#e30613"
   stroke-width="1.5597"
   d="m 282.714,220.478 c 9.172,0 16.588,2.872 16.588,6.377 0,3.506 -7.416,6.376 -16.588,6.376 -9.117,0 -16.531,-2.87 -16.531,-6.376 0,-3.505 7.414,-6.377 16.531,-6.377 z"
   id="path21" />&#10;	<path
   fill="none"
   stroke="#e30613"
   stroke-width="1.5597"
   d="m 282.714,228.324 c 9.172,0 16.588,2.872 16.588,6.375 0,3.513 -7.416,6.377 -16.588,6.377 -9.117,0 -16.531,-2.864 -16.531,-6.377 0,-3.503 7.414,-6.375 16.531,-6.375 z"
   id="path22" />&#10;	<path
   fill="none"
   stroke="#e30613"
   stroke-width="1.5597"
   d="m 282.714,236.218 c 9.172,0 16.588,2.822 16.588,6.352 0,3.533 -7.416,6.351 -16.588,6.351 -9.117,0 -16.531,-2.817 -16.531,-6.351 0,-3.529 7.414,-6.352 16.531,-6.352 z"
   id="path23" />&#10;	<path
   fill="none"
   stroke="#e30613"
   stroke-width="1.5597"
   d="m 282.714,244.063 c 9.172,0 16.588,2.865 16.588,6.378 0,3.505 -7.416,6.374 -16.588,6.374 -9.117,0 -16.531,-2.869 -16.531,-6.374 0,-3.513 7.414,-6.378 16.531,-6.378 z"
   id="path24" />&#10;	<path
   fill="none"
   stroke="#e30613"
   stroke-width="1.5597"
   d="m 282.714,251.908 c 9.172,0 16.588,2.872 16.588,6.378 0,3.506 -7.416,6.375 -16.588,6.375 -9.117,0 -16.531,-2.869 -16.531,-6.375 0,-3.506 7.414,-6.378 16.531,-6.378 z"
   id="path25" />&#10;	<path
   fill="none"
   stroke="#e30613"
   stroke-width="1.5597"
   d="m 282.714,259.803 c 9.172,0 16.588,2.82 16.588,6.342 0,3.539 -7.416,6.359 -16.588,6.359 -9.117,0 -16.531,-2.82 -16.531,-6.359 0,-3.521 7.414,-6.342 16.531,-6.342 z"
   id="path26" />&#10;	<path
   fill="none"
   stroke="#e30613"
   stroke-width="1.5597"
   d="m 282.714,267.649 c 9.172,0 16.588,2.854 16.588,6.375 0,3.508 -7.416,6.375 -16.588,6.375 -9.117,0 -16.531,-2.867 -16.531,-6.375 0,-3.522 7.414,-6.375 16.531,-6.375 z"
   id="path27" />&#10;	<path
   fill="none"
   stroke="#e30613"
   stroke-width="1.5597"
   d="m 282.714,275.493 c 9.172,0 16.588,2.871 16.588,6.377 0,3.506 -7.416,6.377 -16.588,6.377 -9.117,0 -16.531,-2.871 -16.531,-6.377 0,-3.506 7.414,-6.377 16.531,-6.377 z"
   id="path28" />&#10;	<path
   fill="none"
   stroke="#e30613"
   stroke-width="1.5597"
   d="m 282.714,283.375 c 9.172,0 16.588,2.83 16.588,6.34 0,3.555 -7.416,6.377 -16.588,6.377 -9.117,0 -16.531,-2.822 -16.531,-6.377 0,-3.509 7.414,-6.34 16.531,-6.34 z"
   id="path29" />&#10;</g>&#10;<g
   id="g44">&#10;	<path
   d="m 226.267,181.234 -5.129,-20.219 h 2.76 l 2.4,10.229 c 0.6,2.52 1.14,5.04 1.5,6.99 h 0.06 c 0.33,-2.01 0.96,-4.41 1.65,-7.02 l 2.7,-10.2 h 2.73 l 2.46,10.26 c 0.57,2.4 1.11,4.8 1.41,6.93 h 0.06 c 0.42,-2.22 0.99,-4.47 1.62,-6.99 l 2.67,-10.2 h 2.67 l -5.73,20.219 h -2.73 l -2.55,-10.53 c -0.63,-2.58 -1.05,-4.56 -1.32,-6.6 h -0.06 c -0.33,2.01 -0.81,3.99 -1.56,6.6 l -2.88,10.53 h -2.731 z"
   id="path30" />&#10;	<path
   d="m 248.737,174.455 c 0.06,3.57 2.31,5.04 4.98,5.04 1.89,0 3.06,-0.33 4.02,-0.75 l 0.48,1.89 c -0.93,0.42 -2.55,0.93 -4.86,0.93 -4.47,0 -7.14,-2.97 -7.14,-7.35 0,-4.38 2.58,-7.8 6.81,-7.8 4.77,0 6,4.14 6,6.81 0,0.54 -0.03,0.93 -0.09,1.23 z m 7.74,-1.89 c 0.03,-1.65 -0.69,-4.26 -3.66,-4.26 -2.7,0 -3.84,2.43 -4.05,4.26 z"
   id="path31" />&#10;	<path
   d="m 262.297,159.935 h 2.64 v 9.09 h 0.06 c 0.42,-0.75 1.08,-1.44 1.89,-1.89 0.78,-0.45 1.71,-0.72 2.7,-0.72 1.95,0 5.07,1.2 5.07,6.18 v 8.64 h -2.64 v -8.34 c 0,-2.34 -0.87,-4.29 -3.36,-4.29 -1.71,0 -3.03,1.2 -3.54,2.61 -0.15,0.39 -0.18,0.78 -0.18,1.26 v 8.76 h -2.64 z"
   id="path32" />&#10;	<path
   d="m 278.947,170.645 c 0,-1.53 -0.03,-2.73 -0.12,-3.93 h 2.34 l 0.15,2.4 h 0.06 c 0.72,-1.35 2.4,-2.7 4.8,-2.7 2.01,0 5.13,1.2 5.13,6.18 v 8.64 h -2.64 v -8.37 c 0,-2.34 -0.87,-4.29 -3.36,-4.29 -1.71,0 -3.06,1.23 -3.54,2.7 -0.12,0.33 -0.18,0.78 -0.18,1.23 v 8.729 h -2.64 z"
   id="path33" />&#10;	<path
   d="m 297.066,174.455 c 0.06,3.57 2.31,5.04 4.98,5.04 1.89,0 3.06,-0.33 4.02,-0.75 l 0.48,1.89 c -0.93,0.42 -2.55,0.93 -4.86,0.93 -4.47,0 -7.14,-2.97 -7.14,-7.35 0,-4.38 2.58,-7.8 6.81,-7.8 4.77,0 6,4.14 6,6.81 0,0.54 -0.03,0.93 -0.09,1.23 z m 7.74,-1.89 c 0.03,-1.65 -0.69,-4.26 -3.66,-4.26 -2.7,0 -3.84,2.43 -4.05,4.26 z"
   id="path34" />&#10;	<path
   d="m 310.626,159.935 h 2.64 v 21.299 h -2.64 z"
   id="path35" />&#10;	<path
   d="m 320.886,163.235 v 3.479 h 3.78 v 2.01 h -3.78 v 7.83 c 0,1.8 0.51,2.82 1.98,2.82 0.72,0 1.14,-0.06 1.53,-0.18 l 0.12,2.01 c -0.51,0.181 -1.32,0.36 -2.34,0.36 -1.23,0 -2.22,-0.42 -2.85,-1.11 -0.72,-0.81 -1.02,-2.1 -1.02,-3.81 v -7.919 h -2.25 v -2.01 h 2.25 v -2.7 z"
   id="path36" />&#10;	<path
   d="m 325.986,179.705 6.54,-8.55 c 0.66,-0.81 1.26,-1.5 1.92,-2.28 v -0.06 h -7.859 v -2.1 h 11.04 v 1.65 l -6.48,8.43 c -0.63,0.81 -1.2,1.56 -1.86,2.28 v 0.06 h 8.459 v 2.1 h -11.759 v -1.53 z"
   id="path37" />&#10;	<path
   d="m 342.156,166.715 3.15,8.58 c 0.36,0.96 0.72,2.1 0.96,2.97 h 0.06 c 0.27,-0.87 0.57,-1.98 0.93,-3.03 l 2.88,-8.52 h 2.79 l -3.96,10.35 c -1.89,4.979 -3.18,7.5 -4.979,9.09 -1.32,1.109 -2.58,1.56 -3.24,1.68 l -0.66,-2.189 c 0.66,-0.21 1.53,-0.63 2.31,-1.29 0.72,-0.57 1.59,-1.59 2.22,-2.94 0.12,-0.27 0.21,-0.479 0.21,-0.63 0,-0.149 -0.06,-0.36 -0.21,-0.69 l -5.34,-13.379 h 2.879 z"
   id="path38" />&#10;	<path
   d="m 355.325,159.935 h 2.64 v 21.299 h -2.64 z"
   id="path39" />&#10;	<path
   d="m 365.345,162.635 c 0,0.9 -0.63,1.62 -1.68,1.62 -0.96,0 -1.59,-0.72 -1.59,-1.62 0,-0.9 0.66,-1.65 1.65,-1.65 0.96,0 1.62,0.72 1.62,1.65 z m -2.94,18.599 v -14.52 h 2.64 v 14.52 z"
   id="path40" />&#10;	<path
   d="m 369.425,170.645 c 0,-1.53 -0.03,-2.73 -0.12,-3.93 h 2.34 l 0.15,2.4 h 0.06 c 0.72,-1.35 2.4,-2.7 4.8,-2.7 2.01,0 5.13,1.2 5.13,6.18 v 8.64 h -2.64 v -8.37 c 0,-2.34 -0.87,-4.29 -3.36,-4.29 -1.71,0 -3.06,1.23 -3.54,2.7 -0.12,0.33 -0.18,0.78 -0.18,1.23 v 8.729 h -2.64 z"
   id="path41" />&#10;	<path
   d="m 398.584,159.935 v 17.549 c 0,1.29 0.06,2.76 0.12,3.75 h -2.34 l -0.12,-2.52 h -0.09 c -0.78,1.62 -2.52,2.85 -4.89,2.85 -3.51,0 -6.24,-2.97 -6.24,-7.38 -0.03,-4.83 3,-7.77 6.51,-7.77 2.25,0 3.72,1.05 4.379,2.19 h 0.06 v -8.67 h 2.611 z m -2.61,12.69 c 0,-0.33 -0.03,-0.78 -0.12,-1.11 -0.39,-1.65 -1.83,-3.03 -3.81,-3.03 -2.73,0 -4.35,2.4 -4.35,5.58 0,2.94 1.47,5.37 4.29,5.37 1.77,0 3.39,-1.2 3.87,-3.15 0.09,-0.36 0.12,-0.72 0.12,-1.14 z"
   id="path42" />&#10;	<path
   d="m 404.464,174.455 c 0.06,3.57 2.31,5.04 4.98,5.04 1.89,0 3.06,-0.33 4.02,-0.75 l 0.48,1.89 c -0.93,0.42 -2.55,0.93 -4.86,0.93 -4.47,0 -7.14,-2.97 -7.14,-7.35 0,-4.38 2.58,-7.8 6.81,-7.8 4.77,0 6,4.14 6,6.81 0,0.54 -0.03,0.93 -0.09,1.23 z m 7.74,-1.89 c 0.03,-1.65 -0.69,-4.26 -3.66,-4.26 -2.7,0 -3.84,2.43 -4.05,4.26 z"
   id="path43" />&#10;	<path
   d="m 418.024,171.245 c 0,-1.71 -0.03,-3.18 -0.12,-4.53 h 2.31 l 0.12,2.88 h 0.09 c 0.66,-1.95 2.28,-3.18 4.05,-3.18 0.27,0 0.48,0.03 0.72,0.06 v 2.49 c -0.27,-0.06 -0.54,-0.06 -0.9,-0.06 -1.86,0 -3.18,1.38 -3.54,3.36 -0.06,0.36 -0.09,0.81 -0.09,1.23 v 7.74 h -2.64 z"
   id="path44" />&#10;</g>&#10;<g
   id="g82">&#10;	<path
   d="m 357.665,13.828 c 1.14,-0.271 2.97,-0.45 4.77,-0.45 2.61,0 4.29,0.45 5.52,1.47 1.05,0.78 1.71,1.98 1.71,3.57 0,1.979 -1.32,3.689 -3.42,4.439 v 0.09 c 1.92,0.45 4.17,2.04 4.17,5.04 0,1.74 -0.69,3.09 -1.74,4.05 -1.38,1.29 -3.66,1.89 -6.96,1.89 -1.8,0 -3.18,-0.12 -4.05,-0.239 z m 2.61,8.279 h 2.37 c 2.73,0 4.35,-1.47 4.35,-3.42 0,-2.34 -1.77,-3.3 -4.41,-3.3 -1.2,0 -1.89,0.09 -2.31,0.18 z m 0,9.66 c 0.54,0.09 1.26,0.119 2.19,0.119 2.7,0 5.19,-0.989 5.19,-3.93 0,-2.729 -2.37,-3.899 -5.22,-3.899 h -2.16 z"
   id="path45" />&#10;	<path
   d="m 375.425,26.967 c 0.06,3.569 2.31,5.039 4.98,5.039 1.89,0 3.06,-0.33 4.02,-0.75 l 0.48,1.891 c -0.93,0.42 -2.55,0.93 -4.86,0.93 -4.47,0 -7.14,-2.97 -7.14,-7.35 0,-4.38 2.58,-7.8 6.81,-7.8 4.77,0 6,4.14 6,6.81 0,0.54 -0.03,0.93 -0.09,1.23 z m 7.74,-1.89 c 0.03,-1.649 -0.69,-4.26 -3.66,-4.26 -2.7,0 -3.84,2.43 -4.05,4.26 z"
   id="path46" />&#10;	<path
   d="m 388.625,31.077 c 0.81,0.48 2.19,1.02 3.51,1.02 1.89,0 2.79,-0.93 2.79,-2.159 0,-1.26 -0.75,-1.92 -2.67,-2.641 -2.64,-0.96 -3.87,-2.369 -3.87,-4.109 0,-2.34 1.92,-4.26 5.01,-4.26 1.47,0 2.76,0.39 3.54,0.9 l -0.63,1.92 c -0.57,-0.36 -1.62,-0.87 -2.97,-0.87 -1.56,0 -2.4,0.899 -2.4,1.979 0,1.2 0.84,1.74 2.73,2.49 2.49,0.93 3.81,2.189 3.81,4.35 0,2.58 -2.01,4.38 -5.4,4.38 -1.59,0 -3.06,-0.42 -4.08,-1.021 z"
   id="path47" />&#10;	<path
   d="m 411.214,33.237 c -0.69,0.33 -2.22,0.84 -4.17,0.84 -4.38,0 -7.229,-2.97 -7.229,-7.41 0,-4.47 3.06,-7.739 7.799,-7.739 1.56,0 2.94,0.39 3.66,0.78 l -0.6,2.01 c -0.63,-0.33 -1.62,-0.69 -3.06,-0.69 -3.33,0 -5.129,2.49 -5.129,5.49 0,3.359 2.16,5.43 5.04,5.43 1.5,0 2.49,-0.36 3.24,-0.69 z"
   id="path48" />&#10;	<path
   d="m 414.305,12.448 h 2.64 v 9.089 h 0.06 c 0.42,-0.75 1.08,-1.439 1.89,-1.89 0.78,-0.45 1.71,-0.72 2.7,-0.72 1.95,0 5.07,1.2 5.07,6.18 v 8.64 h -2.64 v -8.34 c 0,-2.34 -0.87,-4.29 -3.36,-4.29 -1.71,0 -3.03,1.2 -3.54,2.61 -0.15,0.39 -0.18,0.78 -0.18,1.26 v 8.76 h -2.64 z"
   id="path49" />&#10;	<path
   d="m 430.954,12.448 h 2.64 v 21.299 h -2.64 z"
   id="path50" />&#10;	<path
   d="m 439.504,26.967 c 0.06,3.569 2.31,5.039 4.98,5.039 1.89,0 3.06,-0.33 4.02,-0.75 l 0.48,1.891 c -0.93,0.42 -2.55,0.93 -4.86,0.93 -4.47,0 -7.14,-2.97 -7.14,-7.35 0,-4.38 2.58,-7.8 6.81,-7.8 4.77,0 6,4.14 6,6.81 0,0.54 -0.03,0.93 -0.09,1.23 z m 7.74,-1.89 c 0.03,-1.649 -0.69,-4.26 -3.66,-4.26 -2.7,0 -3.84,2.43 -4.05,4.26 z"
   id="path51" />&#10;	<path
   d="m 465.213,29.756 c 0,1.53 0.03,2.851 0.12,3.99 h -2.34 l -0.15,-2.37 h -0.06 c -0.66,1.17 -2.22,2.7 -4.8,2.7 -2.28,0 -5.01,-1.29 -5.01,-6.359 v -8.49 h 2.64 v 8.01 c 0,2.76 0.87,4.649 3.24,4.649 1.77,0 3,-1.229 3.48,-2.43 0.15,-0.359 0.24,-0.84 0.24,-1.35 v -8.88 h 2.64 z"
   id="path52" />&#10;	<path
   d="m 469.594,23.157 c 0,-1.529 -0.03,-2.729 -0.12,-3.93 h 2.34 l 0.15,2.4 h 0.06 c 0.72,-1.351 2.4,-2.7 4.8,-2.7 2.01,0 5.13,1.2 5.13,6.18 v 8.64 h -2.64 v -8.37 c 0,-2.34 -0.87,-4.289 -3.36,-4.289 -1.71,0 -3.06,1.229 -3.54,2.699 -0.12,0.33 -0.18,0.78 -0.18,1.23 v 8.729 h -2.64 z"
   id="path53" />&#10;	<path
   d="m 489.184,15.147 c 0,0.9 -0.63,1.62 -1.68,1.62 -0.96,0 -1.59,-0.72 -1.59,-1.62 0,-0.899 0.66,-1.649 1.65,-1.649 0.959,0 1.62,0.719 1.62,1.649 z m -2.94,18.6 v -14.52 h 2.64 v 14.52 z"
   id="path54" />&#10;	<path
   d="m 505.683,31.617 c 0,3.359 -0.69,5.37 -2.07,6.66 -1.44,1.289 -3.48,1.739 -5.31,1.739 -1.74,0 -3.66,-0.42 -4.83,-1.2 l 0.66,-2.039 c 0.96,0.63 2.459,1.17 4.26,1.17 2.7,0 4.68,-1.41 4.68,-5.101 v -1.59 h -0.06 c -0.78,1.351 -2.37,2.431 -4.62,2.431 -3.6,0 -6.18,-3.061 -6.18,-7.08 0,-4.92 3.209,-7.68 6.569,-7.68 2.52,0 3.87,1.29 4.53,2.49 h 0.06 l 0.09,-2.19 h 2.34 c -0.09,1.021 -0.12,2.22 -0.12,3.96 v 8.43 z m -2.64,-6.66 c 0,-0.449 -0.03,-0.84 -0.15,-1.17 -0.48,-1.56 -1.74,-2.819 -3.689,-2.819 -2.52,0 -4.32,2.13 -4.32,5.489 0,2.851 1.47,5.22 4.29,5.22 1.65,0 3.12,-1.02 3.66,-2.699 0.15,-0.45 0.21,-0.96 0.21,-1.41 v -2.611 z"
   id="path55" />&#10;	<path
   d="m 522.182,29.756 c 0,1.53 0.03,2.851 0.12,3.99 h -2.34 l -0.15,-2.37 h -0.06 c -0.66,1.17 -2.22,2.7 -4.8,2.7 -2.28,0 -5.01,-1.29 -5.01,-6.359 v -8.49 h 2.64 v 8.01 c 0,2.76 0.87,4.649 3.24,4.649 1.77,0 3,-1.229 3.48,-2.43 0.15,-0.359 0.24,-0.84 0.24,-1.35 v -8.88 h 2.64 z"
   id="path56" />&#10;	<path
   d="m 526.563,23.157 c 0,-1.529 -0.03,-2.729 -0.12,-3.93 h 2.34 l 0.15,2.4 h 0.06 c 0.72,-1.351 2.4,-2.7 4.8,-2.7 2.01,0 5.13,1.2 5.13,6.18 v 8.64 h -2.64 v -8.37 c 0,-2.34 -0.87,-4.289 -3.36,-4.289 -1.71,0 -3.06,1.229 -3.54,2.699 -0.12,0.33 -0.18,0.78 -0.18,1.23 v 8.729 h -2.64 z"
   id="path57" />&#10;	<path
   d="m 555.632,31.617 c 0,3.359 -0.69,5.37 -2.07,6.66 -1.44,1.289 -3.48,1.739 -5.31,1.739 -1.74,0 -3.66,-0.42 -4.83,-1.2 l 0.66,-2.039 c 0.96,0.63 2.459,1.17 4.26,1.17 2.7,0 4.68,-1.41 4.68,-5.101 v -1.59 h -0.06 c -0.78,1.351 -2.37,2.431 -4.62,2.431 -3.6,0 -6.18,-3.061 -6.18,-7.08 0,-4.92 3.209,-7.68 6.569,-7.68 2.52,0 3.87,1.29 4.53,2.49 h 0.06 l 0.09,-2.19 h 2.34 c -0.09,1.021 -0.12,2.22 -0.12,3.96 v 8.43 z m -2.64,-6.66 c 0,-0.449 -0.03,-0.84 -0.15,-1.17 -0.48,-1.56 -1.74,-2.819 -3.689,-2.819 -2.52,0 -4.32,2.13 -4.32,5.489 0,2.851 1.47,5.22 4.29,5.22 1.65,0 3.12,-1.02 3.66,-2.699 0.15,-0.45 0.21,-0.96 0.21,-1.41 v -2.611 z"
   id="path58" />&#10;	<path
   d="m 559.623,31.077 c 0.81,0.48 2.19,1.02 3.51,1.02 1.89,0 2.79,-0.93 2.79,-2.159 0,-1.26 -0.75,-1.92 -2.67,-2.641 -2.64,-0.96 -3.87,-2.369 -3.87,-4.109 0,-2.34 1.92,-4.26 5.01,-4.26 1.47,0 2.76,0.39 3.54,0.9 l -0.63,1.92 c -0.57,-0.36 -1.62,-0.87 -2.97,-0.87 -1.56,0 -2.4,0.899 -2.4,1.979 0,1.2 0.84,1.74 2.73,2.49 2.49,0.93 3.81,2.189 3.81,4.35 0,2.58 -2.01,4.38 -5.4,4.38 -1.59,0 -3.06,-0.42 -4.08,-1.021 z"
   id="path59" />&#10;	<path
   d="m 571.502,31.077 c 0.81,0.48 2.19,1.02 3.51,1.02 1.89,0 2.79,-0.93 2.79,-2.159 0,-1.26 -0.75,-1.92 -2.67,-2.641 -2.64,-0.96 -3.87,-2.369 -3.87,-4.109 0,-2.34 1.92,-4.26 5.01,-4.26 1.47,0 2.76,0.39 3.54,0.9 l -0.63,1.92 c -0.57,-0.36 -1.62,-0.87 -2.97,-0.87 -1.56,0 -2.4,0.899 -2.4,1.979 0,1.2 0.84,1.74 2.73,2.49 2.49,0.93 3.81,2.189 3.81,4.35 0,2.58 -2.01,4.38 -5.4,4.38 -1.59,0 -3.06,-0.42 -4.08,-1.021 z"
   id="path60" />&#10;	<path
   d="m 583.742,23.967 c 0,-1.86 -0.06,-3.36 -0.12,-4.74 h 2.34 l 0.15,2.49 h 0.06 c 1.05,-1.771 2.79,-2.79 5.16,-2.79 3.54,0 6.18,2.97 6.18,7.35 0,5.22 -3.21,7.8 -6.63,7.8 -1.92,0 -3.6,-0.84 -4.47,-2.28 h -0.06 v 7.89 h -2.61 z m 2.61,3.869 c 0,0.391 0.03,0.75 0.12,1.08 0.48,1.83 2.07,3.09 3.959,3.09 2.79,0 4.41,-2.279 4.41,-5.609 0,-2.88 -1.53,-5.37 -4.32,-5.37 -1.8,0 -3.51,1.26 -3.99,3.24 -0.09,0.33 -0.18,0.72 -0.18,1.05 v 2.519 z"
   id="path61" />&#10;	<path
   d="m 611.011,30.267 c 0,1.26 0.06,2.489 0.21,3.479 h -2.37 l -0.21,-1.83 h -0.09 c -0.81,1.14 -2.37,2.16 -4.44,2.16 -2.94,0 -4.44,-2.07 -4.44,-4.17 0,-3.51 3.12,-5.43 8.73,-5.399 v -0.301 c 0,-1.17 -0.33,-3.359 -3.3,-3.329 -1.38,0 -2.79,0.39 -3.81,1.08 l -0.6,-1.771 c 1.2,-0.75 2.97,-1.26 4.8,-1.26 4.44,0 5.52,3.03 5.52,5.91 z m -2.55,-3.931 c -2.88,-0.06 -6.149,0.45 -6.149,3.271 0,1.74 1.14,2.52 2.46,2.52 1.92,0 3.15,-1.2 3.57,-2.43 0.09,-0.3 0.12,-0.6 0.12,-0.84 v -2.521 z"
   id="path62" />&#10;	<path
   d="m 615.271,23.157 c 0,-1.529 -0.03,-2.729 -0.12,-3.93 h 2.34 l 0.15,2.4 h 0.06 c 0.72,-1.351 2.4,-2.7 4.8,-2.7 2.01,0 5.129,1.2 5.129,6.18 v 8.64 h -2.639 v -8.37 c 0,-2.34 -0.871,-4.289 -3.36,-4.289 -1.71,0 -3.06,1.229 -3.54,2.699 -0.12,0.33 -0.18,0.78 -0.18,1.23 v 8.729 h -2.64 z"
   id="path63" />&#10;	<path
   d="m 631.921,23.157 c 0,-1.529 -0.029,-2.729 -0.12,-3.93 h 2.34 l 0.149,2.4 h 0.061 c 0.721,-1.351 2.4,-2.7 4.8,-2.7 2.011,0 5.13,1.2 5.13,6.18 v 8.64 h -2.64 v -8.37 c 0,-2.34 -0.87,-4.289 -3.36,-4.289 -1.709,0 -3.06,1.229 -3.539,2.699 -0.121,0.33 -0.181,0.78 -0.181,1.23 v 8.729 h -2.64 z"
   id="path64" />&#10;	<path
   d="m 660.72,29.756 c 0,1.53 0.03,2.851 0.12,3.99 h -2.34 l -0.149,-2.37 h -0.061 c -0.66,1.17 -2.221,2.7 -4.8,2.7 -2.28,0 -5.01,-1.29 -5.01,-6.359 v -8.49 h 2.64 v 8.01 c 0,2.76 0.87,4.649 3.24,4.649 1.77,0 3,-1.229 3.479,-2.43 0.149,-0.359 0.24,-0.84 0.24,-1.35 v -8.88 h 2.64 v 10.53 z"
   id="path65" />&#10;	<path
   d="m 665.101,23.157 c 0,-1.529 -0.029,-2.729 -0.12,-3.93 h 2.34 l 0.149,2.4 h 0.061 c 0.721,-1.351 2.4,-2.7 4.8,-2.7 2.011,0 5.13,1.2 5.13,6.18 v 8.64 h -2.64 v -8.37 c 0,-2.34 -0.87,-4.289 -3.36,-4.289 -1.709,0 -3.06,1.229 -3.539,2.699 -0.121,0.33 -0.181,0.78 -0.181,1.23 v 8.729 h -2.64 z"
   id="path66" />&#10;	<path
   d="m 694.169,31.617 c 0,3.359 -0.689,5.37 -2.069,6.66 -1.44,1.289 -3.479,1.739 -5.31,1.739 -1.74,0 -3.66,-0.42 -4.83,-1.2 l 0.66,-2.039 c 0.96,0.63 2.459,1.17 4.26,1.17 2.699,0 4.68,-1.41 4.68,-5.101 v -1.59 h -0.06 c -0.779,1.351 -2.369,2.431 -4.619,2.431 -3.6,0 -6.18,-3.061 -6.18,-7.08 0,-4.92 3.209,-7.68 6.569,-7.68 2.521,0 3.87,1.29 4.53,2.49 h 0.06 l 0.091,-2.19 h 2.34 c -0.09,1.021 -0.121,2.22 -0.121,3.96 v 8.43 z m -2.638,-6.66 c 0,-0.449 -0.031,-0.84 -0.15,-1.17 -0.48,-1.56 -1.74,-2.819 -3.689,-2.819 -2.521,0 -4.32,2.13 -4.32,5.489 0,2.851 1.47,5.22 4.289,5.22 1.65,0 3.121,-1.02 3.66,-2.699 0.15,-0.45 0.211,-0.96 0.211,-1.41 v -2.611 z"
   id="path67" />&#10;	<path
   d="m 709.919,13.528 -2.279,11.969 c -0.15,0.84 -0.24,1.71 -0.24,2.55 0,2.58 1.5,3.9 3.75,3.9 2.76,0 4.77,-1.86 5.64,-6.42 l 2.31,-11.999 h 2.49 l -2.311,12.089 c -1.17,6.03 -4.17,8.46 -8.459,8.46 -3.33,0 -5.91,-1.8 -5.91,-5.97 0,-0.87 0.09,-1.86 0.27,-2.79 l 2.25,-11.789 z"
   id="path68" />&#10;	<path
   d="m 440.93,42.927 c -2.19,2.97 -3.75,6.84 -3.75,12.3 0,5.34 1.65,9.149 3.75,12.149 h -2.04 c -1.89,-2.49 -3.93,-6.33 -3.93,-12.18 0.03,-5.88 2.04,-9.749 3.93,-12.27 h 2.04 z"
   id="path69" />&#10;	<path
   d="m 454.1,63.237 c -0.69,0.33 -2.22,0.84 -4.17,0.84 -4.38,0 -7.229,-2.97 -7.229,-7.41 0,-4.47 3.06,-7.739 7.799,-7.739 1.56,0 2.94,0.39 3.66,0.78 l -0.6,2.01 c -0.63,-0.33 -1.62,-0.69 -3.06,-0.69 -3.33,0 -5.129,2.49 -5.129,5.49 0,3.359 2.16,5.43 5.04,5.43 1.5,0 2.49,-0.36 3.24,-0.69 z"
   id="path70" />&#10;	<path
   d="m 467.39,60.267 c 0,1.26 0.06,2.489 0.21,3.479 h -2.37 l -0.21,-1.83 h -0.09 c -0.81,1.14 -2.37,2.16 -4.44,2.16 -2.94,0 -4.44,-2.07 -4.44,-4.17 0,-3.51 3.12,-5.43 8.73,-5.399 v -0.301 c 0,-1.17 -0.33,-3.359 -3.3,-3.329 -1.38,0 -2.79,0.39 -3.81,1.08 l -0.6,-1.771 c 1.2,-0.75 2.97,-1.26 4.8,-1.26 4.44,0 5.52,3.03 5.52,5.91 z m -2.55,-3.931 c -2.88,-0.06 -6.15,0.45 -6.15,3.271 0,1.74 1.14,2.52 2.46,2.52 1.92,0 3.15,-1.2 3.57,-2.43 0.09,-0.3 0.12,-0.6 0.12,-0.84 z"
   id="path71" />&#10;	<path
   d="m 471.02,62.187 c 0,-1.08 0.75,-1.891 1.8,-1.891 1.05,0 1.77,0.78 1.77,1.891 0,1.08 -0.72,1.89 -1.83,1.89 -1.02,0 -1.74,-0.81 -1.74,-1.89 z"
   id="path72" />&#10;	<path
   d="m 489.108,46.708 h -0.06 l -3.39,1.83 -0.51,-2.011 4.26,-2.279 h 2.25 v 19.499 h -2.55 z"
   id="path73" />&#10;	<path
   d="m 502.218,55.887 h 0.06 c 0.36,-0.511 0.84,-1.141 1.26,-1.65 l 4.29,-5.01 h 3.15 l -5.58,5.97 6.39,8.55 h -3.24 l -4.979,-6.96 -1.35,1.5 v 5.46 h -2.61 V 42.448 h 2.61 v 13.439 z"
   id="path74" />&#10;	<path
   d="m 518.208,63.747 -6.63,-20.219 h 2.85 l 3.15,9.959 c 0.84,2.73 1.59,5.19 2.16,7.56 h 0.06 c 0.57,-2.34 1.38,-4.89 2.31,-7.529 l 3.42,-9.989 h 2.79 l -7.229,20.219 h -2.881 z"
   id="path75" />&#10;	<path
   d="m 542.897,54.687 v 1.92 h -7.41 v -1.92 z"
   id="path76" />&#10;	<path
   d="m 557.237,46.708 h -0.06 l -3.39,1.83 -0.51,-2.011 4.26,-2.279 h 2.25 v 19.499 h -2.55 z"
   id="path77" />&#10;	<path
   d="m 578.536,46.467 h -7.439 l -0.75,5.01 c 0.45,-0.06 0.87,-0.09 1.59,-0.09 1.53,0 3,0.3 4.2,1.05 1.53,0.84 2.79,2.55 2.79,4.979 0,3.811 -3.03,6.66 -7.26,6.66 -2.13,0 -3.9,-0.6 -4.86,-1.2 l 0.66,-2.01 c 0.81,0.48 2.4,1.08 4.2,1.08 2.46,0 4.62,-1.62 4.59,-4.229 0,-2.521 -1.71,-4.29 -5.58,-4.29 -1.14,0 -2.01,0.09 -2.73,0.18 l 1.26,-9.359 h 9.33 v 2.219 z"
   id="path78" />&#10;	<path
   d="m 595.276,53.787 c 0,6.63 -2.49,10.29 -6.78,10.29 -3.81,0 -6.419,-3.57 -6.479,-10.02 0,-6.57 2.85,-10.14 6.81,-10.14 4.079,0 6.449,3.661 6.449,9.87 z m -10.589,0.3 c 0,5.069 1.56,7.949 3.959,7.949 2.67,0 3.96,-3.149 3.96,-8.13 0,-4.8 -1.2,-7.949 -3.96,-7.949 -2.28,10e-4 -3.959,2.82 -3.959,8.13 z"
   id="path79" />&#10;	<path
   d="m 607.486,55.887 h 0.06 c 0.36,-0.511 0.84,-1.141 1.26,-1.65 l 4.29,-5.01 h 3.15 l -5.58,5.97 6.39,8.55 h -3.24 l -4.979,-6.96 -1.35,1.5 v 5.46 h -2.61 V 42.448 h 2.61 v 13.439 z"
   id="path80" />&#10;	<path
   d="m 623.476,63.747 -6.63,-20.219 h 2.85 l 3.149,9.959 c 0.84,2.73 1.59,5.19 2.16,7.56 h 0.061 c 0.57,-2.34 1.379,-4.89 2.31,-7.529 l 3.42,-9.989 h 2.79 l -7.23,20.219 h -2.88 z"
   id="path81" />&#10;	<path
   d="m 635.746,67.376 c 2.1,-2.97 3.75,-6.84 3.75,-12.239 0,-5.4 -1.62,-9.21 -3.75,-12.21 h 2.039 c 1.891,2.46 3.931,6.33 3.931,12.21 -0.03,5.88 -2.04,9.72 -3.931,12.239 z"
   id="path82" />&#10;</g>&#10;<g
   id="g93">&#10;	<path
   d="m 56.745,421.97 c -1.17,0.45 -3.51,1.11 -6.24,1.11 -3.06,0 -5.58,-0.78 -7.56,-2.67 -1.74,-1.68 -2.82,-4.38 -2.82,-7.53 0,-6.029 4.17,-10.439 10.949,-10.439 2.34,0 4.2,0.51 5.07,0.931 l -0.66,2.13 c -1.08,-0.51 -2.43,-0.87 -4.47,-0.87 -4.92,0 -8.13,3.06 -8.13,8.13 0,5.129 3.06,8.16 7.8,8.16 1.71,0 2.88,-0.24 3.479,-0.541 v -6.029 h -4.08 v -2.1 h 6.66 v 9.718 z"
   id="path83" />&#10;	<path
   d="m 60.616,401.571 h 2.64 v 21.299 h -2.64 z"
   id="path84" />&#10;	<path
   d="m 79.845,418.88 c 0,1.53 0.03,2.85 0.12,3.99 h -2.34 l -0.15,-2.37 h -0.06 c -0.66,1.171 -2.22,2.7 -4.8,2.7 -2.28,0 -5.01,-1.29 -5.01,-6.359 v -8.49 h 2.64 v 8.01 c 0,2.76 0.87,4.65 3.24,4.65 1.77,0 3,-1.23 3.48,-2.431 0.15,-0.36 0.24,-0.84 0.24,-1.35 v -8.88 h 2.64 z m -10.26,-14.639 c 0,-0.84 0.66,-1.53 1.53,-1.53 0.81,0 1.44,0.66 1.44,1.53 0,0.81 -0.6,1.529 -1.5,1.529 -0.84,0.001 -1.47,-0.719 -1.47,-1.529 z m 5.55,0 c 0,-0.84 0.66,-1.53 1.5,-1.53 0.84,0 1.47,0.66 1.47,1.53 0,0.81 -0.6,1.529 -1.5,1.529 -0.87,0.001 -1.47,-0.719 -1.47,-1.529 z"
   id="path85" />&#10;	<path
   d="m 84.225,401.571 h 2.64 v 9.09 h 0.06 c 0.42,-0.75 1.08,-1.44 1.89,-1.891 0.78,-0.449 1.71,-0.72 2.7,-0.72 1.95,0 5.07,1.2 5.07,6.18 v 8.64 h -2.64 v -8.34 c 0,-2.34 -0.87,-4.289 -3.36,-4.289 -1.71,0 -3.03,1.199 -3.54,2.609 -0.15,0.391 -0.18,0.779 -0.18,1.26 v 8.76 h -2.64 z"
   id="path86" />&#10;	<path
   d="m 103.485,415.011 h 0.06 c 0.36,-0.51 0.84,-1.141 1.26,-1.65 l 4.29,-5.01 h 3.15 l -5.58,5.97 6.39,8.55 h -3.24 l -4.979,-6.959 -1.35,1.499 v 5.46 h -2.61 v -21.299 h 2.61 v 13.439 z"
   id="path87" />&#10;	<path
   d="m 125.685,419.39 c 0,1.261 0.06,2.49 0.21,3.48 h -2.37 l -0.21,-1.83 h -0.09 c -0.81,1.141 -2.37,2.16 -4.44,2.16 -2.94,0 -4.44,-2.07 -4.44,-4.17 0,-3.51 3.12,-5.43 8.73,-5.4 v -0.299 c 0,-1.17 -0.33,-3.36 -3.3,-3.33 -1.38,0 -2.79,0.39 -3.81,1.08 l -0.6,-1.771 c 1.2,-0.75 2.97,-1.26 4.8,-1.26 4.44,0 5.52,3.03 5.52,5.909 z m -2.55,-3.93 c -2.88,-0.06 -6.15,0.451 -6.15,3.271 0,1.739 1.14,2.52 2.46,2.52 1.92,0 3.15,-1.2 3.57,-2.43 0.09,-0.3 0.12,-0.601 0.12,-0.84 z"
   id="path88" />&#10;	<path
   d="m 133.004,404.87 v 3.48 h 3.78 v 2.01 h -3.78 v 7.83 c 0,1.8 0.51,2.82 1.98,2.82 0.72,0 1.14,-0.061 1.53,-0.181 l 0.12,2.011 c -0.51,0.18 -1.32,0.359 -2.34,0.359 -1.23,0 -2.22,-0.42 -2.85,-1.109 -0.72,-0.811 -1.02,-2.101 -1.02,-3.811 v -7.92 h -2.25 v -2.01 h 2.25 v -2.699 z"
   id="path89" />&#10;	<path
   d="m 139.754,401.571 h 2.64 v 9.09 h 0.06 c 0.42,-0.75 1.08,-1.44 1.89,-1.891 0.78,-0.449 1.71,-0.72 2.7,-0.72 1.95,0 5.07,1.2 5.07,6.18 v 8.64 h -2.64 v -8.34 c 0,-2.34 -0.87,-4.289 -3.36,-4.289 -1.71,0 -3.03,1.199 -3.54,2.609 -0.15,0.391 -0.18,0.779 -0.18,1.26 v 8.76 h -2.64 z"
   id="path90" />&#10;	<path
   d="m 169.544,415.49 c 0,5.37 -3.75,7.71 -7.23,7.71 -3.9,0 -6.959,-2.88 -6.959,-7.47 0,-4.83 3.209,-7.68 7.2,-7.68 4.169,10e-4 6.989,3.031 6.989,7.44 z m -11.49,0.151 c 0,3.18 1.8,5.579 4.38,5.579 2.52,0 4.41,-2.369 4.41,-5.639 0,-2.461 -1.23,-5.551 -4.35,-5.551 -3.09,0 -4.44,2.881 -4.44,5.611 z"
   id="path91" />&#10;	<path
   d="m 185.383,401.571 v 17.549 c 0,1.29 0.06,2.76 0.12,3.75 h -2.34 l -0.12,-2.52 h -0.09 c -0.78,1.619 -2.52,2.85 -4.89,2.85 -3.51,0 -6.24,-2.971 -6.24,-7.38 -0.03,-4.829 3,-7.77 6.51,-7.77 2.25,0 3.72,1.05 4.379,2.19 h 0.06 v -8.67 h 2.611 z m -2.61,12.69 c 0,-0.33 -0.03,-0.78 -0.12,-1.11 -0.39,-1.649 -1.83,-3.03 -3.81,-3.03 -2.73,0 -4.35,2.4 -4.35,5.58 0,2.939 1.47,5.37 4.29,5.37 1.77,0 3.39,-1.2 3.87,-3.149 0.09,-0.36 0.12,-0.721 0.12,-1.141 z"
   id="path92" />&#10;	<path
   d="m 191.264,416.091 c 0.06,3.569 2.31,5.039 4.98,5.039 1.89,0 3.06,-0.33 4.02,-0.75 l 0.48,1.891 c -0.93,0.42 -2.55,0.93 -4.86,0.93 -4.47,0 -7.14,-2.971 -7.14,-7.35 0,-4.38 2.58,-7.8 6.81,-7.8 4.77,0 6,4.14 6,6.81 0,0.54 -0.03,0.93 -0.09,1.23 z m 7.739,-1.891 c 0.03,-1.65 -0.69,-4.26 -3.66,-4.26 -2.7,0 -3.84,2.43 -4.05,4.26 z"
   id="path93" />&#10;</g>&#10;<g
   id="g106">&#10;	<path
   d="m 44.437,231.688 v 8.46 h 9.78 v -8.46 h 2.64 v 20.219 h -2.64 v -9.479 h -9.78 v 9.479 h -2.64 v -20.219 z"
   id="path94" />&#10;	<path
   d="m 62.767,245.127 c 0.06,3.57 2.31,5.04 4.98,5.04 1.89,0 3.06,-0.33 4.02,-0.75 l 0.48,1.89 c -0.93,0.42 -2.55,0.93 -4.86,0.93 -4.47,0 -7.14,-2.97 -7.14,-7.35 0,-4.38 2.58,-7.8 6.81,-7.8 4.77,0 6,4.14 6,6.81 0,0.54 -0.03,0.93 -0.09,1.23 z m 7.739,-1.889 c 0.03,-1.65 -0.69,-4.26 -3.66,-4.26 -2.7,0 -3.84,2.43 -4.05,4.26 z"
   id="path95" />&#10;	<path
   d="m 79.267,233.308 c 0,0.9 -0.63,1.62 -1.68,1.62 -0.96,0 -1.59,-0.72 -1.59,-1.62 0,-0.9 0.66,-1.65 1.65,-1.65 0.959,0 1.62,0.72 1.62,1.65 z m -2.94,18.599 v -14.52 h 2.64 v 14.52 z"
   id="path96" />&#10;	<path
   d="m 81.697,250.377 6.54,-8.55 c 0.66,-0.81 1.26,-1.5 1.92,-2.28 v -0.06 h -7.859 v -2.1 h 11.04 v 1.65 l -6.48,8.43 c -0.63,0.81 -1.2,1.56 -1.86,2.28 v 0.06 h 8.459 v 2.1 h -11.76 z"
   id="path97" />&#10;	<path
   d="m 102.306,242.848 v 1.92 h -7.41 v -1.92 z"
   id="path98" />&#10;	<path
   d="m 9.878,279.237 c 0.81,0.48 2.19,1.02 3.51,1.02 1.89,0 2.79,-0.93 2.79,-2.16 0,-1.26 -0.75,-1.92 -2.67,-2.64 -2.64,-0.96 -3.87,-2.37 -3.87,-4.11 0,-2.34 1.92,-4.26 5.01,-4.26 1.47,0 2.76,0.39 3.54,0.9 l -0.63,1.92 c -0.57,-0.36 -1.62,-0.87 -2.97,-0.87 -1.56,0 -2.4,0.9 -2.4,1.98 0,1.2 0.84,1.74 2.73,2.49 2.49,0.93 3.81,2.19 3.81,4.35 0,2.58 -2.01,4.38 -5.4,4.38 -1.59,0 -3.06,-0.42 -4.08,-1.02 z"
   id="path99" />&#10;	<path
   d="m 22.118,272.127 c 0,-1.86 -0.06,-3.36 -0.12,-4.74 h 2.34 l 0.15,2.49 h 0.06 c 1.05,-1.77 2.79,-2.79 5.16,-2.79 3.54,0 6.18,2.97 6.18,7.35 0,5.22 -3.21,7.8 -6.63,7.8 -1.92,0 -3.6,-0.84 -4.47,-2.28 h -0.06 v 7.89 h -2.61 z m 2.61,3.871 c 0,0.39 0.03,0.75 0.12,1.08 0.48,1.83 2.07,3.09 3.96,3.09 2.79,0 4.41,-2.28 4.41,-5.61 0,-2.88 -1.53,-5.37 -4.32,-5.37 -1.8,0 -3.51,1.26 -3.99,3.24 -0.09,0.33 -0.18,0.72 -0.18,1.05 z"
   id="path100" />&#10;	<path
   d="m 49.387,278.427 c 0,1.26 0.06,2.49 0.21,3.48 h -2.37 l -0.21,-1.83 h -0.09 c -0.81,1.14 -2.37,2.16 -4.44,2.16 -2.94,0 -4.44,-2.07 -4.44,-4.17 0,-3.51 3.12,-5.43 8.73,-5.4 v -0.3 c 0,-1.17 -0.33,-3.36 -3.3,-3.33 -1.38,0 -2.79,0.39 -3.81,1.08 l -0.6,-1.77 c 1.2,-0.75 2.97,-1.26 4.8,-1.26 4.44,0 5.52,3.03 5.52,5.91 z m -2.55,-3.929 c -2.88,-0.06 -6.15,0.45 -6.15,3.27 0,1.74 1.14,2.52 2.46,2.52 1.92,0 3.15,-1.2 3.57,-2.43 0.09,-0.3 0.12,-0.6 0.12,-0.84 z"
   id="path101" />&#10;	<path
   d="m 53.647,271.318 c 0,-1.53 -0.03,-2.73 -0.12,-3.93 h 2.34 l 0.15,2.4 h 0.06 c 0.72,-1.35 2.4,-2.7 4.8,-2.7 2.01,0 5.13,1.2 5.13,6.18 v 8.64 h -2.64 v -8.37 c 0,-2.34 -0.87,-4.29 -3.36,-4.29 -1.71,0 -3.06,1.23 -3.54,2.7 -0.12,0.33 -0.18,0.78 -0.18,1.23 v 8.729 h -2.64 z"
   id="path102" />&#10;	<path
   d="m 70.297,271.318 c 0,-1.53 -0.03,-2.73 -0.12,-3.93 h 2.34 l 0.15,2.4 h 0.06 c 0.72,-1.35 2.4,-2.7 4.8,-2.7 2.01,0 5.13,1.2 5.13,6.18 v 8.64 h -2.64 v -8.37 c 0,-2.34 -0.87,-4.29 -3.36,-4.29 -1.71,0 -3.06,1.23 -3.54,2.7 -0.12,0.33 -0.18,0.78 -0.18,1.23 v 8.729 h -2.64 z"
   id="path103" />&#10;	<path
   d="m 99.096,277.917 c 0,1.53 0.03,2.85 0.12,3.99 h -2.34 l -0.15,-2.37 h -0.06 c -0.66,1.17 -2.22,2.7 -4.8,2.7 -2.28,0 -5.01,-1.29 -5.01,-6.36 v -8.49 h 2.64 v 8.01 c 0,2.76 0.87,4.65 3.24,4.65 1.77,0 3,-1.23 3.48,-2.43 0.15,-0.36 0.24,-0.84 0.24,-1.35 v -8.88 h 2.64 z"
   id="path104" />&#10;	<path
   d="m 103.477,271.318 c 0,-1.53 -0.03,-2.73 -0.12,-3.93 h 2.34 l 0.15,2.4 h 0.06 c 0.72,-1.35 2.4,-2.7 4.8,-2.7 2.01,0 5.13,1.2 5.13,6.18 v 8.64 h -2.64 v -8.37 c 0,-2.34 -0.87,-4.29 -3.36,-4.29 -1.71,0 -3.06,1.23 -3.54,2.7 -0.12,0.33 -0.18,0.78 -0.18,1.23 v 8.729 h -2.64 z"
   id="path105" />&#10;	<path
   d="m 132.546,279.777 c 0,3.36 -0.69,5.37 -2.07,6.66 -1.44,1.29 -3.48,1.74 -5.31,1.74 -1.74,0 -3.66,-0.42 -4.83,-1.2 l 0.66,-2.04 c 0.96,0.63 2.459,1.17 4.26,1.17 2.7,0 4.68,-1.41 4.68,-5.1 v -1.59 h -0.06 c -0.78,1.35 -2.37,2.43 -4.62,2.43 -3.6,0 -6.18,-3.06 -6.18,-7.08 0,-4.92 3.209,-7.68 6.569,-7.68 2.52,0 3.87,1.29 4.53,2.49 h 0.06 l 0.09,-2.19 h 2.34 c -0.09,1.02 -0.12,2.22 -0.12,3.96 v 8.43 z m -2.64,-6.659 c 0,-0.45 -0.03,-0.84 -0.15,-1.17 -0.48,-1.56 -1.74,-2.82 -3.689,-2.82 -2.52,0 -4.32,2.13 -4.32,5.49 0,2.85 1.47,5.22 4.29,5.22 1.65,0 3.12,-1.02 3.66,-2.7 0.15,-0.45 0.21,-0.96 0.21,-1.41 v -2.61 z"
   id="path106" />&#10;</g>&#10;<g
   id="g111">&#10;	<path
   d="m 614.803,199.615 -2.1,6.36 h -2.7 l 6.9,-20.219 h 3.12 l 6.9,20.219 h -2.791 l -2.159,-6.36 z m 6.659,-2.04 -2.009,-5.82 c -0.45,-1.32 -0.75,-2.52 -1.05,-3.69 h -0.06 c -0.3,1.17 -0.6,2.43 -1.02,3.66 l -1.98,5.85 z"
   id="path107" />&#10;	<path
   d="m 629.714,195.385 c 0,-1.53 -0.03,-2.73 -0.121,-3.93 h 2.34 l 0.15,2.4 h 0.061 c 0.72,-1.35 2.399,-2.7 4.799,-2.7 2.011,0 5.131,1.2 5.131,6.18 v 8.64 h -2.641 v -8.37 c 0,-2.34 -0.869,-4.29 -3.359,-4.29 -1.71,0 -3.061,1.23 -3.54,2.7 -0.12,0.33 -0.181,0.78 -0.181,1.23 v 8.729 h -2.639 z"
   id="path108" />&#10;	<path
   d="m 659.503,198.595 c 0,5.37 -3.75,7.71 -7.23,7.71 -3.9,0 -6.959,-2.88 -6.959,-7.47 0,-4.83 3.209,-7.68 7.199,-7.68 4.17,0 6.99,3.03 6.99,7.44 z m -11.49,0.15 c 0,3.18 1.8,5.58 4.38,5.58 2.521,0 4.409,-2.37 4.409,-5.64 0,-2.46 -1.229,-5.55 -4.35,-5.55 -3.089,0 -4.439,2.88 -4.439,5.61 z"
   id="path109" />&#10;	<path
   d="m 675.343,184.675 v 17.549 c 0,1.29 0.06,2.76 0.119,3.75 h -2.34 l -0.119,-2.52 h -0.09 c -0.78,1.62 -2.521,2.85 -4.891,2.85 -3.51,0 -6.239,-2.97 -6.239,-7.38 -0.03,-4.83 2.999,-7.77 6.51,-7.77 2.249,0 3.72,1.05 4.38,2.19 h 0.06 v -8.67 h 2.61 z m -2.61,12.69 c 0,-0.33 -0.03,-0.78 -0.12,-1.11 -0.39,-1.65 -1.83,-3.03 -3.81,-3.03 -2.729,0 -4.35,2.4 -4.35,5.58 0,2.94 1.47,5.37 4.29,5.37 1.77,0 3.39,-1.2 3.869,-3.15 0.09,-0.36 0.12,-0.72 0.12,-1.14 v -2.52 z"
   id="path110" />&#10;	<path
   d="m 681.222,199.195 c 0.061,3.57 2.311,5.04 4.98,5.04 1.891,0 3.061,-0.33 4.02,-0.75 l 0.48,1.89 c -0.93,0.42 -2.551,0.93 -4.859,0.93 -4.471,0 -7.141,-2.97 -7.141,-7.35 0,-4.38 2.58,-7.8 6.811,-7.8 4.77,0 5.999,4.14 5.999,6.81 0,0.54 -0.03,0.93 -0.09,1.23 z m 7.74,-1.89 c 0.03,-1.65 -0.689,-4.26 -3.66,-4.26 -2.699,0 -3.84,2.43 -4.049,4.26 z"
   id="path111" />&#10;</g>&#10;&#10;<g
   id="g121">&#10;	<path
   d="m 427.106,223.299 h -7.83 v 7.29 h 8.76 v 2.19 H 416.637 V 212.56 h 10.949 v 2.19 h -8.31 v 6.39 h 7.83 z"
   id="path112" />&#10;	<path
   d="m 431.336,211.479 h 2.64 v 21.299 h -2.64 z"
   id="path113" />&#10;	<path
   d="m 439.885,225.999 c 0.061,3.57 2.311,5.04 4.979,5.04 1.891,0 3.061,-0.33 4.021,-0.75 l 0.479,1.89 c -0.93,0.42 -2.55,0.93 -4.859,0.93 -4.47,0 -7.14,-2.97 -7.14,-7.35 0,-4.38 2.58,-7.8 6.81,-7.8 4.77,0 6,4.14 6,6.81 0,0.54 -0.03,0.93 -0.09,1.23 z m 7.74,-1.89 c 0.029,-1.65 -0.69,-4.26 -3.66,-4.26 -2.7,0 -3.84,2.43 -4.05,4.26 z"
   id="path114" />&#10;	<path
   d="m 456.055,224.918 h 0.06 c 0.36,-0.51 0.841,-1.14 1.261,-1.65 l 4.289,-5.01 h 3.15 l -5.58,5.97 6.39,8.55 h -3.239 l -4.98,-6.96 -1.35,1.5 v 5.46 h -2.61 v -21.299 h 2.61 v 13.439 z"
   id="path115" />&#10;	<path
   d="m 470.696,214.779 v 3.479 h 3.779 v 2.01 h -3.779 v 7.83 c 0,1.8 0.51,2.82 1.979,2.82 0.72,0 1.14,-0.06 1.53,-0.18 l 0.12,2.01 c -0.511,0.18 -1.32,0.36 -2.34,0.36 -1.23,0 -2.221,-0.42 -2.851,-1.11 -0.72,-0.81 -1.02,-2.1 -1.02,-3.81 v -7.919 h -2.25 v -2.01 h 2.25 v -2.7 z"
   id="path116" />&#10;	<path
   d="m 477.445,222.789 c 0,-1.71 -0.029,-3.18 -0.119,-4.53 h 2.31 l 0.12,2.88 h 0.09 c 0.66,-1.95 2.28,-3.18 4.05,-3.18 0.27,0 0.479,0.03 0.72,0.06 v 2.49 c -0.27,-0.06 -0.54,-0.06 -0.899,-0.06 -1.86,0 -3.181,1.38 -3.54,3.36 -0.061,0.36 -0.09,0.81 -0.09,1.23 v 7.74 h -2.641 v -9.99 z"
   id="path117" />&#10;	<path
   d="m 500.094,225.398 c 0,5.37 -3.75,7.71 -7.229,7.71 -3.899,0 -6.96,-2.88 -6.96,-7.47 0,-4.83 3.21,-7.68 7.2,-7.68 4.17,0.001 6.989,3.031 6.989,7.44 z m -11.489,0.151 c 0,3.18 1.8,5.58 4.38,5.58 2.52,0 4.41,-2.37 4.41,-5.64 0,-2.46 -1.23,-5.55 -4.351,-5.55 -3.089,0 -4.439,2.88 -4.439,5.61 z"
   id="path118" />&#10;	<path
   d="m 503.424,222.189 c 0,-1.53 -0.029,-2.73 -0.119,-3.93 h 2.34 l 0.149,2.4 h 0.061 c 0.72,-1.35 2.399,-2.7 4.8,-2.7 2.01,0 5.13,1.2 5.13,6.18 v 8.64 h -2.641 v -8.37 c 0,-2.34 -0.869,-4.29 -3.359,-4.29 -1.71,0 -3.06,1.23 -3.54,2.7 -0.12,0.33 -0.18,0.78 -0.18,1.23 v 8.729 h -2.641 z"
   id="path119" />&#10;	<path
   d="m 521.544,225.999 c 0.06,3.57 2.31,5.04 4.979,5.04 1.89,0 3.06,-0.33 4.02,-0.75 l 0.48,1.89 c -0.93,0.42 -2.55,0.93 -4.86,0.93 -4.47,0 -7.14,-2.97 -7.14,-7.35 0,-4.38 2.58,-7.8 6.81,-7.8 4.771,0 6,4.14 6,6.81 0,0.54 -0.029,0.93 -0.09,1.23 z m 7.74,-1.89 c 0.03,-1.65 -0.689,-4.26 -3.66,-4.26 -2.699,0 -3.84,2.43 -4.05,4.26 z"
   id="path120" />&#10;	<path
   d="m 535.104,222.189 c 0,-1.53 -0.029,-2.73 -0.119,-3.93 h 2.34 l 0.149,2.4 h 0.061 c 0.72,-1.35 2.399,-2.7 4.8,-2.7 2.01,0 5.13,1.2 5.13,6.18 v 8.64 h -2.641 v -8.37 c 0,-2.34 -0.869,-4.29 -3.359,-4.29 -1.71,0 -3.06,1.23 -3.54,2.7 -0.12,0.33 -0.18,0.78 -0.18,1.23 v 8.729 h -2.641 z"
   id="path121" />&#10;</g>&#10;<polyline
   fill="none"
   stroke="#dd127c"
   stroke-width="4"
   points="717.628,294.062 686.708,294.062 613.378,220.732 717.628,220.732   "
   id="polyline121" />&#10;<polyline
   fill="none"
   stroke="#010202"
   stroke-width="4"
   points="717.628,220.732 825.423,220.732 825.423,294.062 717.628,294.062   "
   id="polyline122" />&#10;<circle
   fill="#2d4c9b"
   cx="393.07199"
   cy="251.908"
   r="4.026"
   id="circle122" />&#10;<circle
   fill="#2d4c9b"
   cx="457.71201"
   cy="251.908"
   r="4.026"
   id="circle123" />&#10;<circle
   fill="#2d4c9b"
   cx="424.35999"
   cy="265.345"
   r="4.026"
   id="circle124" />&#10;<circle
   fill="#2d4c9b"
   cx="367.97501"
   cy="267.64899"
   r="4.026"
   id="circle125" />&#10;<circle
   fill="#2d4c9b"
   cx="479.66"
   cy="261.32001"
   r="4.026"
   id="circle126" />&#10;<circle
   fill="#2d4c9b"
   cx="518.20898"
   cy="251.908"
   r="4.026"
   id="circle127" />&#10;<circle
   fill="#2d4c9b"
   cx="567.32397"
   cy="263.62299"
   r="4.026"
   id="circle128" />&#10;<circle
   fill="#2d4c9b"
   cx="558.42999"
   cy="251.908"
   r="4.026"
   id="circle129" />&#10;<circle
   fill="#2d4c9b"
   cx="598.40503"
   cy="263.62299"
   r="4.026"
   id="circle130" />&#10;<circle
   fill="#2d4c9b"
   cx="617.30603"
   cy="255.935"
   r="4.026"
   id="circle131" />&#10;<circle
   fill="#2d4c9b"
   cx="491.73801"
   cy="251.908"
   r="4.026"
   id="circle132" />&#10;<line
   fill="none"
   stroke="#7c4092"
   stroke-width="4"
   x1="632.37799"
   y1="239.731"
   x2="668.13898"
   y2="275.49301"
   id="line132" />&#10;<path
   fill="none"
   stroke="#76c3ee"
   stroke-width="6.6658"
   d="M 842.378,276.399 H 693.253 c -11.284,0 -20.432,-9.759 -20.432,-21.798 0,-12.038 9.147,-21.797 20.432,-21.797 h 149.125"
   id="path132" />&#10;<circle
   fill="#2d4c9b"
   cx="312.54099"
   cy="251.908"
   r="4.026"
   id="circle133" />&#10;<circle
   fill="#2d4c9b"
   cx="333.59399"
   cy="263.62299"
   r="4.026"
   id="circle134" />&#10;<circle
   fill="#2d4c9b"
   cx="356.00101"
   cy="250.439"
   r="4.026"
   id="circle135" />&#10;<circle
   fill="#2d4c9b"
   cx="299.302"
   cy="275.49301"
   r="4.026"
   id="circle136" />&#10;<circle
   fill="#2d4c9b"
   cx="294.88901"
   cy="238.726"
   r="4.026"
   id="circle137" />&#10;<circle
   fill="#2d4c9b"
   cx="278.147"
   cy="256.815"
   r="4.026"
   id="circle138" />&#10;<circle
   fill="#2d4c9b"
   cx="274.121"
   cy="283.375"
   r="4.026"
   id="circle139" />&#10;<circle
   fill="#2d4c9b"
   cx="270.09399"
   cy="236.80499"
   r="4.026"
   id="circle140" />&#10;<circle
   fill="#2d4c9b"
   cx="290.86301"
   cy="255.93401"
   r="4.026"
   id="circle141" />&#10;<circle
   fill="#2d4c9b"
   cx="586.32599"
   cy="252.789"
   r="4.026"
   id="circle142" />&#10;<g
   id="g148">&#10;	<path
   d="m 714.745,243.125 h 2.609 v 9.75 h 0.09 c 0.54,-0.78 1.08,-1.5 1.59,-2.16 l 6.18,-7.59 h 3.24 l -7.319,8.58 7.89,11.64 h -3.09 l -6.63,-9.93 -1.95,2.22 v 7.709 h -2.609 v -20.219 z"
   id="path142" />&#10;	<path
   d="m 742.884,259.355 c 0,1.53 0.029,2.85 0.119,3.99 h -2.34 l -0.149,-2.37 h -0.061 c -0.659,1.17 -2.22,2.7 -4.8,2.7 -2.279,0 -5.01,-1.29 -5.01,-6.36 v -8.49 h 2.641 v 8.01 c 0,2.76 0.869,4.65 3.239,4.65 1.771,0 3,-1.23 3.48,-2.43 0.149,-0.36 0.239,-0.84 0.239,-1.35 v -8.88 h 2.641 v 10.53 z m -10.259,-14.64 c 0,-0.84 0.66,-1.53 1.529,-1.53 0.811,0 1.44,0.66 1.44,1.53 0,0.81 -0.6,1.53 -1.5,1.53 -0.84,0.001 -1.469,-0.72 -1.469,-1.53 z m 5.549,0 c 0,-0.84 0.66,-1.53 1.5,-1.53 0.84,0 1.47,0.66 1.47,1.53 0,0.81 -0.6,1.53 -1.5,1.53 -0.87,0.001 -1.47,-0.72 -1.47,-1.53 z"
   id="path143" />&#10;	<path
   d="m 747.263,242.045 h 2.641 v 9.09 h 0.06 c 0.42,-0.75 1.08,-1.44 1.89,-1.89 0.78,-0.45 1.71,-0.72 2.7,-0.72 1.95,0 5.07,1.2 5.07,6.18 v 8.64 h -2.641 v -8.34 c 0,-2.34 -0.87,-4.29 -3.359,-4.29 -1.71,0 -3.03,1.2 -3.54,2.61 -0.15,0.39 -0.18,0.78 -0.18,1.26 v 8.76 h -2.641 z"
   id="path144" />&#10;	<path
   d="m 763.914,242.045 h 2.641 v 21.299 h -2.641 z"
   id="path145" />&#10;	<path
   d="m 783.143,259.355 c 0,1.53 0.029,2.85 0.119,3.99 h -2.34 l -0.149,-2.37 h -0.061 c -0.659,1.17 -2.22,2.7 -4.8,2.7 -2.279,0 -5.01,-1.29 -5.01,-6.36 v -8.49 h 2.641 v 8.01 c 0,2.76 0.869,4.65 3.239,4.65 1.771,0 3,-1.23 3.48,-2.43 0.149,-0.36 0.239,-0.84 0.239,-1.35 v -8.88 h 2.641 v 10.53 z"
   id="path146" />&#10;	<path
   d="m 787.523,252.755 c 0,-1.53 -0.029,-2.73 -0.119,-3.93 h 2.34 l 0.149,2.4 h 0.061 c 0.72,-1.35 2.399,-2.7 4.8,-2.7 2.01,0 5.13,1.2 5.13,6.18 v 8.64 h -2.641 v -8.37 c 0,-2.34 -0.87,-4.29 -3.359,-4.29 -1.71,0 -3.06,1.23 -3.54,2.7 -0.12,0.33 -0.18,0.78 -0.18,1.23 v 8.729 h -2.641 z"
   id="path147" />&#10;	<path
   d="m 816.592,261.215 c 0,3.36 -0.69,5.37 -2.07,6.66 -1.439,1.29 -3.479,1.74 -5.31,1.74 -1.739,0 -3.659,-0.42 -4.83,-1.2 l 0.66,-2.04 c 0.96,0.63 2.46,1.17 4.26,1.17 2.7,0 4.68,-1.41 4.68,-5.1 v -1.59 h -0.06 c -0.78,1.35 -2.37,2.43 -4.62,2.43 -3.6,0 -6.18,-3.06 -6.18,-7.08 0,-4.92 3.21,-7.68 6.57,-7.68 2.52,0 3.869,1.29 4.529,2.49 h 0.061 l 0.09,-2.19 h 2.34 c -0.09,1.02 -0.12,2.22 -0.12,3.96 z m -2.639,-6.66 c 0,-0.45 -0.03,-0.84 -0.15,-1.17 -0.479,-1.56 -1.74,-2.82 -3.689,-2.82 -2.521,0 -4.32,2.13 -4.32,5.49 0,2.85 1.471,5.22 4.29,5.22 1.65,0 3.12,-1.02 3.66,-2.7 0.149,-0.45 0.21,-0.96 0.21,-1.41 v -2.61 z"
   id="path148" />&#10;</g>&#10;<g
   id="g151">&#10;	<g
   id="g150">&#10;		<line
   fill="none"
   stroke="#4eae33"
   stroke-width="3"
   x1="644.37799"
   y1="255.93401"
   x2="505.26599"
   y2="471.186"
   id="line148" />&#10;		<g
   id="g149">&#10;			<polygon
   fill="#4eae33"
   points="506.125,469.855 520.211,470.525 493.769,488.976 499.727,457.287 "
   id="polygon148" />&#10;		</g>&#10;	</g>&#10;</g>&#10;<g
   id="g154">&#10;	<g
   id="g153">&#10;		<line
   fill="none"
   stroke="#4eae33"
   stroke-width="3"
   x1="644.37799"
   y1="255.93401"
   x2="560.086"
   y2="446.082"
   id="line151" />&#10;		<g
   id="g152">&#10;			<polygon
   fill="#4eae33"
   points="560.728,444.635 574.745,443.101 551.502,465.446 552.448,433.217 "
   id="polygon151" />&#10;		</g>&#10;	</g>&#10;</g>&#10;<g
   id="g157">&#10;	<g
   id="g156">&#10;		<line
   fill="none"
   stroke="#4eae33"
   stroke-width="3"
   x1="644.37799"
   y1="255.93401"
   x2="509.14801"
   y2="384.01099"
   id="line154" />&#10;		<g
   id="g155">&#10;			<polygon
   fill="#4eae33"
   points="510.298,382.922 523.825,386.904 493.769,398.576 507.053,369.196 "
   id="polygon154" />&#10;		</g>&#10;	</g>&#10;</g>&#10;<circle
   fill="#2d4c9b"
   cx="640.35303"
   cy="256.814"
   r="4.026"
   id="circle157" />&#10;<circle
   fill="#2d4c9b"
   cx="542.37903"
   cy="263.62299"
   r="4.026"
   id="circle158" />&#10;<circle
   fill="#2d4c9b"
   cx="506.37799"
   cy="263.62299"
   r="4.026"
   id="circle159" />&#10;<circle
   fill="#2d4c9b"
   cx="444.37799"
   cy="263.62299"
   r="4.026"
   id="circle160" />&#10;<circle
   fill="#2d4c9b"
   cx="432.41199"
   cy="250.02"
   r="4.026"
   id="circle161" />&#10;<circle
   fill="#2d4c9b"
   cx="397.09799"
   cy="263.62299"
   r="4.026"
   id="circle162" />&#10;<g
   id="g178">&#10;	<path
   d="m 600.22,424.271 c 1.319,-0.239 3.239,-0.42 5.01,-0.42 2.789,0 4.619,0.541 5.85,1.65 0.99,0.9 1.59,2.279 1.59,3.869 0,2.641 -1.68,4.41 -3.78,5.131 v 0.09 c 1.53,0.539 2.46,1.979 2.94,4.08 0.66,2.819 1.14,4.77 1.56,5.549 h -2.7 c -0.329,-0.6 -0.779,-2.31 -1.319,-4.829 -0.601,-2.79 -1.71,-3.84 -4.08,-3.931 h -2.46 v 8.76 h -2.609 v -19.949 z m 2.61,9.209 h 2.67 c 2.79,0 4.56,-1.53 4.56,-3.84 0,-2.61 -1.89,-3.749 -4.649,-3.749 -1.26,0 -2.13,0.09 -2.58,0.209 v 7.38 z"
   id="path162" />&#10;	<path
   d="m 629.529,436.841 c 0,5.369 -3.75,7.709 -7.229,7.709 -3.899,0 -6.96,-2.879 -6.96,-7.469 0,-4.83 3.21,-7.68 7.2,-7.68 4.169,0 6.989,3.03 6.989,7.44 z m -11.489,0.15 c 0,3.18 1.8,5.579 4.38,5.579 2.52,0 4.41,-2.37 4.41,-5.64 0,-2.46 -1.23,-5.55 -4.351,-5.55 -3.09,10e-4 -4.439,2.881 -4.439,5.611 z m 0.12,-11.4 c 0,-0.84 0.66,-1.529 1.53,-1.529 0.81,0 1.439,0.66 1.439,1.529 0,0.811 -0.6,1.53 -1.5,1.53 -0.839,0 -1.469,-0.72 -1.469,-1.53 z m 5.549,0 c 0,-0.84 0.66,-1.529 1.5,-1.529 0.84,0 1.47,0.66 1.47,1.529 0,0.811 -0.6,1.53 -1.5,1.53 -0.87,0 -1.47,-0.72 -1.47,-1.53 z"
   id="path163" />&#10;	<path
   d="m 632.859,433.631 c 0,-1.53 -0.029,-2.729 -0.119,-3.931 h 2.34 l 0.149,2.4 h 0.061 c 0.72,-1.35 2.399,-2.699 4.8,-2.699 2.01,0 5.13,1.199 5.13,6.18 v 8.639 h -2.641 v -8.369 c 0,-2.34 -0.87,-4.29 -3.359,-4.29 -1.71,0 -3.06,1.229 -3.54,2.7 -0.12,0.33 -0.18,0.779 -0.18,1.23 v 8.729 h -2.641 z"
   id="path164" />&#10;	<path
   d="m 652.57,426.221 v 3.479 h 3.779 v 2.011 h -3.779 v 7.829 c 0,1.801 0.51,2.82 1.979,2.82 0.72,0 1.14,-0.061 1.53,-0.18 l 0.12,2.01 c -0.511,0.18 -1.32,0.359 -2.34,0.359 -1.23,0 -2.221,-0.42 -2.851,-1.109 -0.72,-0.811 -1.02,-2.1 -1.02,-3.811 v -7.919 h -2.25 v -2.01 h 2.25 v -2.699 z"
   id="path165" />&#10;	<path
   d="m 671.559,442.091 c 0,3.359 -0.69,5.369 -2.07,6.659 -1.439,1.29 -3.479,1.739 -5.31,1.739 -1.739,0 -3.659,-0.42 -4.83,-1.199 l 0.66,-2.04 c 0.96,0.63 2.46,1.17 4.26,1.17 2.7,0 4.68,-1.409 4.68,-5.1 v -1.59 h -0.06 c -0.78,1.35 -2.37,2.43 -4.62,2.43 -3.6,0 -6.18,-3.06 -6.18,-7.079 0,-4.92 3.21,-7.68 6.57,-7.68 2.52,0 3.869,1.289 4.529,2.489 h 0.061 l 0.09,-2.19 h 2.34 c -0.09,1.021 -0.12,2.221 -0.12,3.961 z m -2.64,-6.66 c 0,-0.45 -0.03,-0.84 -0.15,-1.17 -0.479,-1.561 -1.74,-2.82 -3.689,-2.82 -2.521,0 -4.32,2.131 -4.32,5.49 0,2.85 1.471,5.22 4.29,5.22 1.65,0 3.12,-1.021 3.66,-2.7 0.149,-0.449 0.21,-0.96 0.21,-1.41 v -2.61 z"
   id="path166" />&#10;	<path
   d="m 677.379,437.44 c 0.06,3.57 2.31,5.04 4.979,5.04 1.89,0 3.06,-0.33 4.02,-0.75 l 0.48,1.89 c -0.93,0.42 -2.55,0.93 -4.86,0.93 -4.47,0 -7.14,-2.97 -7.14,-7.35 0,-4.379 2.58,-7.799 6.81,-7.799 4.771,0 6,4.139 6,6.809 0,0.541 -0.03,0.931 -0.09,1.23 z m 7.74,-1.889 c 0.03,-1.65 -0.689,-4.261 -3.66,-4.261 -2.699,0 -3.84,2.431 -4.05,4.261 z"
   id="path167" />&#10;	<path
   d="m 690.938,433.631 c 0,-1.53 -0.029,-2.729 -0.119,-3.931 h 2.34 l 0.149,2.4 h 0.061 c 0.72,-1.35 2.399,-2.699 4.8,-2.699 2.01,0 5.13,1.199 5.13,6.18 v 8.639 h -2.641 v -8.369 c 0,-2.34 -0.869,-4.29 -3.359,-4.29 -1.71,0 -3.06,1.229 -3.54,2.7 -0.12,0.33 -0.18,0.779 -0.18,1.23 v 8.729 h -2.641 z"
   id="path168" />&#10;	<path
   d="m 713.708,435.161 v 1.92 h -7.409 v -1.92 z"
   id="path169" />&#10;	<path
   d="m 599.77,471.551 c 0.81,0.48 2.189,1.02 3.51,1.02 1.89,0 2.79,-0.93 2.79,-2.159 0,-1.26 -0.75,-1.92 -2.67,-2.641 -2.64,-0.96 -3.87,-2.369 -3.87,-4.109 0,-2.34 1.92,-4.26 5.01,-4.26 1.47,0 2.76,0.391 3.54,0.9 l -0.63,1.92 c -0.57,-0.36 -1.62,-0.871 -2.97,-0.871 -1.561,0 -2.4,0.9 -2.4,1.98 0,1.2 0.84,1.74 2.73,2.49 2.489,0.93 3.81,2.189 3.81,4.35 0,2.58 -2.01,4.38 -5.399,4.38 -1.591,0 -3.061,-0.42 -4.08,-1.021 z"
   id="path170" />&#10;	<path
   d="m 615.19,456.222 v 3.479 h 3.779 v 2.011 h -3.779 v 7.829 c 0,1.8 0.51,2.819 1.979,2.819 0.72,0 1.14,-0.06 1.53,-0.18 l 0.12,2.01 c -0.511,0.181 -1.32,0.36 -2.34,0.36 -1.23,0 -2.221,-0.42 -2.851,-1.11 -0.72,-0.81 -1.02,-2.1 -1.02,-3.81 v -7.919 h -2.25 V 459.7 h 2.25 V 457 Z"
   id="path171" />&#10;	<path
   d="m 621.939,464.231 c 0,-1.711 -0.029,-3.18 -0.119,-4.53 h 2.31 l 0.12,2.88 h 0.09 c 0.66,-1.949 2.28,-3.18 4.05,-3.18 0.27,0 0.479,0.029 0.72,0.061 v 2.489 c -0.27,-0.06 -0.54,-0.06 -0.899,-0.06 -1.86,0 -3.181,1.38 -3.54,3.359 -0.061,0.36 -0.09,0.81 -0.09,1.23 v 7.739 h -2.641 v -9.988 z"
   id="path172" />&#10;	<path
   d="m 641.799,470.741 c 0,1.26 0.06,2.489 0.21,3.479 h -2.37 l -0.21,-1.83 h -0.09 c -0.811,1.14 -2.37,2.16 -4.439,2.16 -2.94,0 -4.44,-2.07 -4.44,-4.17 0,-3.51 3.12,-5.43 8.729,-5.399 v -0.301 c 0,-1.17 -0.33,-3.359 -3.3,-3.33 -1.38,0 -2.79,0.391 -3.81,1.08 l -0.6,-1.77 c 1.199,-0.75 2.97,-1.26 4.8,-1.26 4.439,0 5.52,3.029 5.52,5.91 z m -2.549,-3.93 c -2.88,-0.06 -6.15,0.45 -6.15,3.271 0,1.739 1.141,2.52 2.46,2.52 1.92,0 3.15,-1.2 3.57,-2.43 0.09,-0.3 0.12,-0.6 0.12,-0.84 z"
   id="path173" />&#10;	<path
   d="m 646.059,452.921 h 2.641 v 9.09 h 0.06 c 0.42,-0.75 1.08,-1.439 1.89,-1.89 0.78,-0.45 1.71,-0.72 2.7,-0.72 1.95,0 5.07,1.199 5.07,6.18 v 8.64 h -2.641 v -8.34 c 0,-2.34 -0.869,-4.29 -3.359,-4.29 -1.71,0 -3.03,1.2 -3.54,2.61 -0.15,0.39 -0.18,0.78 -0.18,1.26 v 8.76 h -2.641 z"
   id="path174" />&#10;	<path
   d="m 662.708,452.921 h 2.641 v 21.3 h -2.641 z"
   id="path175" />&#10;	<path
   d="m 681.939,470.23 c 0,1.53 0.029,2.851 0.119,3.99 h -2.34 l -0.149,-2.37 h -0.061 c -0.659,1.17 -2.22,2.7 -4.8,2.7 -2.279,0 -5.01,-1.29 -5.01,-6.359 v -8.49 h 2.641 v 8.01 c 0,2.76 0.869,4.649 3.239,4.649 1.771,0 3,-1.229 3.48,-2.43 0.149,-0.359 0.239,-0.84 0.239,-1.35 v -8.88 h 2.641 v 10.53 z"
   id="path176" />&#10;	<path
   d="m 686.319,463.631 c 0,-1.53 -0.029,-2.729 -0.119,-3.93 h 2.34 l 0.149,2.399 h 0.061 c 0.72,-1.35 2.399,-2.699 4.8,-2.699 2.01,0 5.13,1.199 5.13,6.18 v 8.64 h -2.641 v -8.37 c 0,-2.34 -0.869,-4.289 -3.359,-4.289 -1.71,0 -3.06,1.229 -3.54,2.699 -0.12,0.33 -0.18,0.78 -0.18,1.23 v 8.729 h -2.641 z"
   id="path177" />&#10;	<path
   d="m 715.388,472.091 c 0,3.359 -0.689,5.37 -2.07,6.66 -1.439,1.289 -3.479,1.739 -5.31,1.739 -1.739,0 -3.659,-0.42 -4.829,-1.2 l 0.659,-2.039 c 0.96,0.63 2.46,1.17 4.26,1.17 2.7,0 4.681,-1.41 4.681,-5.101 v -1.59 h -0.061 c -0.78,1.351 -2.37,2.431 -4.62,2.431 -3.6,0 -6.18,-3.061 -6.18,-7.08 0,-4.92 3.21,-7.68 6.57,-7.68 2.52,0 3.869,1.29 4.529,2.49 h 0.061 l 0.09,-2.19 h 2.34 c -0.09,1.021 -0.12,2.22 -0.12,3.96 z m -2.639,-6.66 c 0,-0.449 -0.03,-0.84 -0.15,-1.17 -0.479,-1.56 -1.739,-2.819 -3.689,-2.819 -2.521,0 -4.32,2.13 -4.32,5.489 0,2.851 1.47,5.22 4.29,5.22 1.65,0 3.12,-1.02 3.66,-2.699 0.149,-0.45 0.21,-0.96 0.21,-1.41 v -2.611 z"
   id="path178" />&#10;</g>&#10;<g
   id="g181">&#10;	<g
   id="g180">&#10;		<line
   fill="none"
   stroke="#1b181c"
   stroke-width="3"
   x1="244.69299"
   y1="277.41699"
   x2="119.023"
   y2="391.35999"
   id="line178" />&#10;		<g
   id="g179">&#10;			<polygon
   fill="#1b181c"
   points="243.52,278.481 246.463,292.271 260.385,263.189 230.081,274.203 "
   id="polygon178" />&#10;		</g>&#10;	</g>&#10;</g>&#10;</svg>
